<?xml version="1.0" encoding="UTF-8" standalone="no"?>
<!-- Generator: Adobe Illustrator 13.0.2, SVG Export Plug-In . SVG Version: 6.00 Build 14948)  -->

<svg
   xmlns:dc="http://purl.org/dc/elements/1.1/"
   xmlns:cc="http://creativecommons.org/ns#"
   xmlns:rdf="http://www.w3.org/1999/02/22-rdf-syntax-ns#"
   xmlns:svg="http://www.w3.org/2000/svg"
   xmlns="http://www.w3.org/2000/svg"
   xmlns:xlink="http://www.w3.org/1999/xlink"
   xmlns:sodipodi="http://sodipodi.sourceforge.net/DTD/sodipodi-0.dtd"
   xmlns:inkscape="http://www.inkscape.org/namespaces/inkscape"
   id="Layer_1"
   xml:space="preserve"
   height="1000"
   viewBox="0 0 1000.0014 999.99587"
   width="1000"
   version="1.1"
   y="0px"
   x="0px"
   enable-background="new 0 0 716.981 721.417"
   inkscape:version="0.48.5 r10040"
   sodipodi:docname="OpenAutomation_logo_highres.svg"><title
     id="title3054">OpenAutomation logo</title><metadata
     id="metadata131"><rdf:RDF><cc:Work
         rdf:about=""><dc:format>image/svg+xml</dc:format><dc:type
           rdf:resource="http://purl.org/dc/dcmitype/StillImage" /><dc:title>OpenAutomation logo</dc:title><dc:date>2015-03-08</dc:date><dc:creator><cc:Agent><dc:title>Christian Mayer</dc:title></cc:Agent></dc:creator><dc:rights><cc:Agent><dc:title>CC-by-sa 3.0/de</dc:title></cc:Agent></dc:rights><cc:license
           rdf:resource="http://creativecommons.org/licenses/by-sa/3.0/" /></cc:Work><cc:License
         rdf:about="http://creativecommons.org/licenses/by-sa/3.0/"><cc:permits
           rdf:resource="http://creativecommons.org/ns#Reproduction" /><cc:permits
           rdf:resource="http://creativecommons.org/ns#Distribution" /><cc:requires
           rdf:resource="http://creativecommons.org/ns#Notice" /><cc:requires
           rdf:resource="http://creativecommons.org/ns#Attribution" /><cc:permits
           rdf:resource="http://creativecommons.org/ns#DerivativeWorks" /><cc:requires
           rdf:resource="http://creativecommons.org/ns#ShareAlike" /></cc:License></rdf:RDF></metadata><sodipodi:namedview
     pagecolor="#ffffff"
     bordercolor="#666666"
     borderopacity="1"
     objecttolerance="10"
     gridtolerance="10"
     guidetolerance="10"
     inkscape:pageopacity="0"
     inkscape:pageshadow="2"
     inkscape:window-width="1920"
     inkscape:window-height="1143"
     id="namedview129"
     showgrid="false"
     inkscape:zoom="0.65426521"
     inkscape:cx="-462.80968"
     inkscape:cy="588.06347"
     inkscape:window-x="-2"
     inkscape:window-y="-3"
     inkscape:window-maximized="1"
     inkscape:current-layer="g4159" /><defs
     id="defs3"><path
       id="SVGID_1_"
       d="m 358.49,720.71 c 197.6,0 357.78,-161.18 357.78,-360 0,-198.82 -160.19,-360 -357.78,-360 C 160.9,0.708 0.71,161.89 0.71,360.71 c -0.001,198.82 160.19,360 357.78,360 z"
       inkscape:connector-curvature="0" /><radialGradient
       inkscape:collect="always"
       xlink:href="#SVGID_3_"
       id="radialGradient3924"
       gradientUnits="userSpaceOnUse"
       cx="358.48999"
       cy="360.70999"
       r="358.89001" /><radialGradient
       inkscape:collect="always"
       xlink:href="#SVGID_6_"
       id="radialGradient3926"
       gradientUnits="userSpaceOnUse"
       cx="358.48999"
       cy="363.64999"
       r="357.42001" /><radialGradient
       inkscape:collect="always"
       xlink:href="#SVGID_3_"
       id="radialGradient4036"
       gradientUnits="userSpaceOnUse"
       cx="358.48999"
       cy="360.70999"
       r="358.89001" /><radialGradient
       inkscape:collect="always"
       xlink:href="#SVGID_6_"
       id="radialGradient4038"
       gradientUnits="userSpaceOnUse"
       cx="358.48999"
       cy="363.64999"
       r="357.42001" /></defs><clipPath
     id="SVGID_2_"><use
       overflow="visible"
       xlink:href="#SVGID_1_"
       id="use7"
       style="overflow:visible"
       x="0"
       y="0"
       width="716.98102"
       height="721.41699" /></clipPath><radialGradient
     id="SVGID_3_"
     gradientUnits="userSpaceOnUse"
     cy="360.70999"
     cx="358.48999"
     r="358.89001"><stop
       stop-color="#A3CD39"
       offset="0"
       id="stop10"
       style="stop-color:#fefdf0;stop-opacity:1;" /><stop
       stop-color="#0A9347"
       offset="1"
       id="stop26"
       style="stop-color:#d0c02b;stop-opacity:1;" /></radialGradient><defs
     id="defs30"><path
       id="SVGID_4_"
       d="m 358.49,720.71 c -50.708,0 -99.064,-10.662 -142.81,-29.82 2.305,-1.923 2.305,-5.781 -0.959,-6.671 -1.186,-2.373 -1.483,-9.792 3.858,-9.196 5.339,0.592 15.725,6.525 13.055,-3.858 -2.671,-10.382 2.373,-0.889 2.373,-0.889 0,0 1.778,-0.89 4.152,1.483 2.373,2.374 5.934,4.153 6.826,2.374 0.889,-1.781 5.339,-4.452 10.975,-3.56 5.639,0.889 8.307,-7.716 8.307,-7.716 0,0 7.121,8.604 2.08,-6.231 -5.045,-14.832 0.293,-8.307 3.561,-8.898 -0.298,-2.373 1.186,-0.298 1.48,-4.45 1.781,1.779 17.801,1.481 17.801,1.481 0,0 -1.48,-5.041 0.893,-6.525 4.152,5.044 14.535,5.934 12.757,1.778 16.02,-9.494 4.746,-12.46 8.604,-15.13 3.855,-2.671 5.934,-8.308 0.89,-12.758 1.188,-0.888 4.152,-5.341 3.857,-8.901 12.46,0.298 6.969,-4.301 6.969,-4.301 0,0 3.414,0.447 2.525,-3.113 -0.893,-3.561 9.494,-5.045 8.899,-7.121 -0.593,-2.078 2.968,-5.341 5.636,-5.934 2.671,-0.595 6.231,-7.121 7.417,-9.199 1.188,-2.077 -6.821,-6.823 -6.821,-6.823 0,0 -13.944,2.075 -8.754,-0.442 5.19,-2.523 -5.786,-4.306 -9.643,-3.71 -0.592,-3.56 -4.152,-4.453 -4.152,-4.453 0,0 -8.01,2.079 -8.901,-2.373 -1.979,-9.89 -12.162,-4.747 -12.162,-4.747 0,0 -10.979,-2.965 -14.836,-7.12 -4.45,4.155 -12.757,2.67 -6.525,-0.295 6.229,-2.969 3.561,-7.12 0.591,-6.231 -2.964,0.89 -13.053,0.89 -13.646,-2.968 -3.561,-0.889 -5.641,4.453 -7.121,5.64 -1.483,-2.374 -10.089,1.481 -13.647,2.667 -2.077,-1.778 -5.936,1.782 -7.714,0.893 -1.78,-0.893 -6.23,2.077 -2.968,-2.078 3.263,-4.153 6.823,-0.891 8.307,-1.78 1.485,-0.888 2.076,-2.075 2.076,-2.075 0,0 3.561,1.48 8.308,-0.298 4.746,-1.78 5.044,-5.341 3.266,-8.009 -1.782,-2.671 -4.453,2.668 -8.307,3.263 -0.532,-2.39 1.48,-2.077 2.076,-4.155 0.591,-2.076 -0.596,-3.263 -2.671,-2.966 -1.485,3.263 -5.339,7.121 -10.682,6.526 0,-3.264 -2.373,-0.295 -6.525,2.373 -4.154,2.671 -5.044,-2.966 -2.079,-3.855 2.969,-0.891 9.792,-4.451 13.353,-5.044 3.561,-0.595 0.889,-2.671 2.373,-3.561 1.483,-0.888 2.075,3.858 2.373,-3.857 0.298,-7.712 -6.231,-4.449 -5.934,-8.897 0.298,-4.453 -3.263,-8.014 -5.045,-10.682 -1.778,-2.671 -1.48,-5.343 -1.48,-5.343 l -2.969,0.298 c 0,0 -5.636,-3.856 -9.196,-2.076 -5.636,-9.199 -11.867,0 -13.055,-3.857 -1.186,-3.856 -8.604,-1.483 -11.867,-3.561 -3.263,-2.076 3.263,-8.604 -1.782,-11.57 -3.549,-2.088 -4.448,-6.825 -4.448,-6.825 0,0 -5.637,3.56 -5.934,-3.561 -0.298,-7.12 -5.339,-5.637 -7.714,-3.561 0,-2.076 -2.078,-2.964 -4.153,-3.56 -0.891,-1.779 5.934,-2.668 5.934,-2.668 0,0 2.67,0.889 4.746,0.294 -0.591,-4.746 -7.419,-4.746 -8.604,-4.449 -1.188,0.298 -8.307,2.969 -9.494,1.781 -1.188,-1.187 -4.45,-4.154 -5.934,-3.856 -1.48,0.297 -9.789,-2.077 -9.789,-2.077 0,0 -1.483,-4.154 -3.266,-4.154 -1.777,0 -4.151,-0.592 -5.041,-4.152 1.48,-1.485 0.89,-3.266 0.593,-7.716 -0.298,-4.449 -1.779,-4.449 -5.936,-2.373 0,0 2.673,7.12 -2.373,9.493 -5.044,2.374 -0.888,4.748 -0.888,4.748 0,0 1.483,2.671 -0.891,4.449 -2.373,1.782 -1.484,2.079 -4.746,0.893 -3.267,-1.188 -2.672,-4.747 -1.188,-6.231 1.481,-1.484 2.374,-3.263 4.151,-5.342 1.782,-2.076 -0.591,-3.56 -0.888,-5.34 -0.298,-1.78 -0.596,-3.857 2.965,-4.746 3.561,-0.89 1.781,-3.263 0.596,-2.671 -1.188,0.596 -1.485,1.483 -4.45,1.187 -2.969,-1.778 -4.453,-1.483 -5.934,0.89 -1.783,-1.188 -13.649,0.595 -13.353,2.373 0.298,1.782 0.593,3.266 -1.186,3.857 -1.782,0.596 -2.672,2.969 -2.97,6.529 -1.778,10.975 -3.854,-1.188 -3.854,-4.453 0,-3.263 -0.596,-3.854 -3.713,-4.892 -1.335,-3.412 -6.079,-2.82 -7.267,-2.228 -1.186,0.595 -8.307,1.186 -8.307,0 0,-1.188 0.89,-8.309 -2.373,-8.309 -0.595,-2.373 0.298,-4.746 -2.228,-8.75 2.818,0.148 1.633,-1.93 0.743,-4.45 0,0 -0.446,-3.413 -1.188,-4.006 1.039,-0.149 1.039,-1.484 1.039,-1.484 0,0 4.304,0 4.304,-3.706 0,-3.711 -2.373,-4.453 -1.633,-6.379 -1.928,-1.781 0.445,-5.64 1.928,-6.528 1.483,-0.89 2.968,-4.45 -0.89,-5.045 1.187,-2.965 -2.966,-5.339 -8.01,-5.636 -1.188,-1.187 -1.487,-3.263 -6.678,-3.561 -5.191,-0.298 -1.333,-3.858 0.447,-5.044 1.78,-1.188 3.619,-11.994 2.373,-12.162 4.448,0.592 7.119,1.187 7.119,-2.671 0,-3.858 3.858,-0.596 3.561,-5.934 -0.298,-5.343 6.713,2.528 1.188,-6.823 -3.858,-6.528 -6.231,-1.187 -10.087,-2.671 -3.996,-1.535 -7.714,3.857 -3.559,8.308 2.075,0.889 -1.957,5.934 -7.716,5.934 -2.076,0 -5.046,-7.27 -5.046,-8.308 0,-1.038 -0.445,-2.969 -3.708,-4.3 -3.263,-1.337 -2.226,-5.491 0.447,-6.381 0.595,-2.969 -0.149,-9.937 -0.149,-9.937 0,0 1.037,-2.525 0.744,-3.117 1.629,-0.89 2.519,-7.563 2.373,-8.902 -1.188,-3.264 2.668,-6.229 7.563,-6.377 0.889,-1.778 -0.89,-7.12 -1.63,-7.864 -0.744,-0.74 2.076,0.446 1.778,-4.747 2.075,-0.889 2.968,-2.222 2.968,-4.747 1.333,-2.52 1.78,0 2.375,-2.374 0.591,-2.373 -0.299,-5.188 1.186,-5.934 1.482,-0.74 4.153,-0.592 4.748,-0.442 4.448,1.037 4.448,3.709 7.414,2.816 2.968,-0.889 2.373,1.187 2.671,3.857 0.297,2.671 0.592,5.935 1.928,4.155 0,0 2.67,1.188 1.187,5.636 -0.297,1.634 1.187,0.89 1.041,2.374 1.188,2.966 4.301,1.633 4.301,1.633 0,0 1.038,-0.889 0.295,-2.521 -0.74,-1.633 -0.89,-6.231 0.152,-6.675 1.033,-0.446 -1.042,-3.117 -1.042,-3.117 0,0 -1.631,-3.263 1.187,-2.225 2.819,1.037 2.373,1.484 2.819,2.816 0.444,1.339 2.672,2.229 5.934,1.781 3.263,-0.442 -4.151,1.633 4.747,2.966 1.188,2.82 -2.202,0.74 1.188,3.561 0.889,0.743 -0.447,2.228 -1.188,2.968 -0.744,0.744 -0.744,2.522 0,2.966 0.74,0.446 2.226,-0.443 2.523,0.595 0.74,-1.038 2.075,1.038 2.224,2.966 2.522,2.525 0.299,5.044 -1.187,5.934 -1.484,0.893 0.596,3.561 0.596,3.561 -3.266,0.297 -3.266,1.93 -2.969,2.373 0.298,0.446 0.148,1.339 -0.297,1.781 1.78,1.336 0.445,4.007 -0.295,7.121 1.63,1.778 1.332,5.044 1.035,6.525 -0.295,1.484 2.968,1.633 3.857,-0.89 0.889,-2.519 1.633,-1.484 2.076,-1.484 0.445,0 0.445,-1.778 -0.593,-2.965 -1.038,-1.187 -0.74,-2.969 -0.442,-4.155 0.295,-1.187 0.145,-1.778 2.373,-1.778 1.928,-1.485 2.077,-3.709 4.152,-5.342 -2.671,0 -1.931,-1.035 -1.778,-2.222 0.146,-1.187 -2.228,-3.117 -2.374,-4.898 -0.152,-1.779 -0.152,-4.45 2.965,-8.308 0.74,-2.076 0,-5.34 0,-5.34 1.485,-2.373 2.966,-1.777 5.488,-1.927 2.522,-0.148 6.082,-3.414 9.052,-2.819 2.965,0.592 4.448,-3.857 4.448,-3.857 2.671,-2.076 5.342,1.187 8.604,-0.593 3.263,-1.781 7.713,-5.044 6.823,-8.013 -0.889,-2.965 5.343,-0.889 2.075,-10.976 -2.373,-4.746 2.668,-4.448 0.447,-6.674 -2.225,-2.228 9.047,-3.411 9.789,-0.297 2.523,-0.446 1.633,-5.491 6.379,-2.522 0.595,-3.857 5.045,-6.528 8.014,-1.484 2.965,5.044 6.227,0.298 6.227,0.298 0,0 4.453,-3.267 6.53,-2.08 2.075,1.188 -7.125,-6.228 -0.447,-8.154 -0.147,-6.678 8.456,-6.678 9.941,-6.086 1.483,0.596 10.322,2.31 14.538,-1.481 2.965,-2.671 9.787,0.89 5.338,2.077 -4.448,1.187 -6.525,2.965 -6.823,4.448 -3.263,0 -4.338,5.881 0.298,3.561 2.373,-1.187 4.45,-5.044 5.934,-3.263 1.481,1.778 3.263,1.484 3.855,-0.148 6.083,0.893 7.86,-0.446 7.86,-0.446 0,0 2.079,-2.222 1.931,-4.151 2.226,-0.74 5.934,-0.74 6.083,-4.301 0.148,-3.561 -0.741,-4.007 -0.741,-4.007 l -4.602,0.148 c 0,0 -2.519,-0.744 -2.519,-1.931 -1.042,1.931 -5.64,1.633 -5.935,0.596 -0.296,-1.038 -2.373,-7.27 -0.594,-8.01 1.781,-0.741 0,-2.079 0,-2.079 0,0 -2.522,0.893 -3.561,0.595 -1.039,-0.298 1.483,-2.373 0,-2.969 -1.484,-0.592 7.119,-0.146 9.937,-0.74 2.819,-0.592 4.453,-0.89 1.931,-5.487 -2.522,0 -6.823,3.113 -8.307,0.148 -1.484,-2.969 -7.568,2.816 -10.238,2.076 -2.668,-0.744 -5.781,1.336 -7.121,2.969 -1.331,0 -4.301,4.003 -7.414,3.854 -3.113,-0.149 -3.709,0.148 -3.709,0.148 0,0 -1.187,-2.076 0,-1.782 1.187,0.297 2.969,-0.443 3.561,-1.332 0.594,-0.889 4.003,-1.336 5.784,-2.672 1.778,-1.335 7.121,-4.896 9.052,-4.896 1.927,0 0.592,-2.815 3.113,-2.225 0,0 0.89,0.444 1.039,1.039 0.148,0.591 1.926,-1.928 5.189,-0.149 2.228,-0.148 4.452,-3.561 10.833,-0.445 0.74,1.633 1.186,4.154 1.186,4.154 0,0 1.481,-0.298 1.188,2.819 -0.297,3.115 2.668,5.636 5.339,3.115 -0.744,-3.263 -0.298,-5.343 0.74,-5.488 1.041,-0.148 3.561,0.146 3.561,0.146 0,0 2.82,1.633 10.534,-2.076 2.076,0.149 3.706,-1.484 4.153,-3.857 0.442,-2.373 2.373,0 3.561,-2.966 1.186,-2.968 3.708,-2.968 4.448,-3.263 0.74,-0.298 0.595,-4.301 -0.295,-5.044 -0.893,-0.74 -2.373,-0.89 -3.413,0 -1.038,0.89 -1.485,-2.522 -5.339,-0.595 -3.858,1.93 -3.71,0.595 -3.71,0.595 0,0 1.335,-1.335 1.928,-1.63 v -1.187 c 0,0 5.193,-0.151 6.976,-1.339 1.778,-1.187 0.146,-5.189 -5.934,-4.152 -1.042,-1.629 3.262,-1.629 -0.744,-4.598 -0.741,-2.225 0.744,-2.374 -0.891,-5.045 l 1.04,-0.148 c 0,0 -0.3,-3.412 0.442,-4.004 0.743,-0.595 0.152,-2.521 0.152,-2.521 0,0 1.773,-2.52 0.146,-5.785 l 1.04,-0.89 -0.297,-1.781 c 0,0 1.627,-1.48 2.52,-2.076 0.893,-0.595 0.296,-2.969 0.296,-2.969 l -1.483,0.596 c 0,0 -1.928,-4.152 -4.748,0.297 0.596,1.034 -0.891,1.633 0,2.668 -1.926,0.446 -2.518,2.225 -2.518,2.225 0,0 -0.748,-0.44 -1.336,0.149 -1.038,-1.188 -1.928,-0.592 -2.82,0 -0.888,0.595 -5.193,-0.447 -4.896,-2.076 0.89,-0.298 1.042,-0.744 -0.442,-1.484 -1.483,-0.74 0.592,-4.446 1.037,-5.339 0.447,-0.89 3.706,-3.71 3.855,-1.187 0.152,2.519 2.671,-2.82 0.445,-3.709 -1.037,-1.634 -0.147,-5.64 -1.48,-6.528 -1.338,-0.89 0.588,-2.52 -2.525,-4.004 -3.114,-1.484 -2.668,-2.671 -2.668,-2.671 0,0 -3.562,0.301 -5.044,-0.592 -1.482,-0.893 1.187,-1.042 -2.225,-1.633 -3.412,-0.595 -3.713,-0.592 -4.896,-1.336 -1.188,-0.743 -3.561,0.298 -3.561,0.298 0,0 0.592,1.336 0,2.076 -0.596,0.74 1.188,1.629 1.188,1.629 0,0 0.442,2.079 1.483,3.117 1.037,1.039 -1.633,-0.592 -0.596,3.263 -0.442,2.08 -1.63,0.893 -2.225,2.08 -0.591,1.187 -1.633,2.519 -1.633,2.519 0,0 -2.373,1.19 -1.187,2.82 1.187,1.629 -6.38,-3.706 -4.45,6.822 -1.186,0.596 -1.628,2.374 -1.483,3.267 -2.817,-1.188 -3.561,0.595 -3.561,4.746 0,4.153 -2.816,1.333 -5.041,2.668 -2.079,0.74 -5.345,0.152 -5.64,0.298 0.744,1.038 -0.443,1.782 -2.373,1.928 0,0 -2.519,0.743 -2.966,4.006 0,0 -2.675,0.893 -2.671,1.782 0,0.889 -5.741,1.126 -0.89,4.746 0.593,0.443 -2.075,1.928 -2.075,1.928 0,0 -0.301,1.931 -0.298,2.225 0,0.298 -5.785,0.443 -5.934,-0.446 -0.149,-0.889 -3.263,0.149 -0.298,-3.857 2.229,-0.146 2.969,-1.034 2.523,-5.636 -0.447,-4.599 1.483,1.187 4.155,-5.935 0.591,-1.927 -0.597,-5.633 0.442,-6.079 1.041,-0.446 0.298,-1.781 0.298,-1.781 1.483,-4.305 -5.636,-1.634 -3.71,-8.754 1.928,-7.12 0.74,-3.26 -1.633,-4.599 -0.889,-0.889 -0.293,-2.667 -0.293,-2.667 0,0 -6.083,1.332 -2.673,-4.453 3.413,-5.785 -1.483,-2.522 3.118,-6.083 l -0.298,-1.629 c 0,0 1.928,2.374 3.858,-6.38 2.075,0 5.636,-2.671 5.781,-3.561 0.152,-0.889 4.898,0.148 7.272,-2.373 2.374,-2.522 3.854,1.778 11.421,-4.301 -0.445,1.778 5.042,0 5.042,0 0,0 0.743,0.889 -1.035,1.927 1.778,0.298 3.854,0.148 4.211,1.226 0.007,-0.002 -0.458,-1.993 1.57,-3.007 1.339,1.041 4.304,-1.631 4.899,-2.373 0.592,-0.741 2.817,-1.631 3.705,-1.188 0.89,0.446 4.155,-1.927 6.083,-1.48 -0.89,-2.82 0.298,-2.671 5.044,-2.82 1.485,-1.336 4.155,-1.038 4.155,-1.038 0,0 2.519,-2.968 0,-5.934 -2.525,-2.968 -3.116,-8.01 -4.601,-5.934 -1.485,2.076 -4.301,0.592 -4.301,0.592 0,0 -1.931,9.494 -7.121,2.374 -1.778,1.78 -4.746,1.187 -4.746,1.187 0,0 0.74,-3.114 -1.484,-5.782 -2.226,-2.671 2.225,-3.414 -0.295,-10.237 -1.339,0.889 -2.969,-0.595 -2.969,-0.595 l -0.592,4.154 c 0,0 -4.602,2.672 -3.712,-3.709 0.893,-6.38 2.374,-8.899 6.086,-8.753 3.706,0.151 0,-4.747 0,-4.747 0,0 1.331,-1.188 2.373,-0.592 1.035,-1.336 2.222,-9.048 0,-9.494 0.593,-0.443 1.631,-1.63 1.631,-1.63 0,0 2.67,-2.079 -1.928,-1.93 -4.602,0.148 -3.709,1.483 -3.709,1.483 0,0 -2.079,-2.671 0.446,-3.266 0.442,-1.188 1.332,-2.374 6.674,-2.816 5.338,-0.446 -1.927,-1.187 7.713,-3.117 0,-2.076 1.478,-3.275 10.237,-2.817 5.636,0.298 4.003,-2.373 4.45,-5.338 3.113,-0.596 9.494,-2.969 9.345,-8.754 -0.148,-5.784 1.633,-3.709 1.335,-6.826 -0.298,-3.113 9.494,-2.965 11.276,-5.339 1.035,1.931 5.041,2.672 5.041,2.672 2.373,0.591 15.133,-3.858 15.133,-3.858 0,0 5.042,2.671 9.494,-0.595 1.779,6.231 5.041,-5.339 11.867,0.595 4.152,-0.297 2.374,-3.857 8.898,-1.484 0,0 6.824,0.298 8.309,-0.297 1.483,-0.592 8.901,2.079 10.383,-1.187 1.484,-3.264 10.979,0 10.979,0 0,0 -6.231,4.452 1.782,4.154 l 1.477,-0.066 c 6.956,-0.383 9.864,-1.51 6.532,-2.901 -3.561,-1.481 4.747,-1.778 9.197,2.968 2.67,0.593 7.716,-0.298 7.716,-0.298 0,0 1.322,-0.372 3.263,2.672 2.075,3.263 1.778,-8.01 5.934,-3.263 2.671,1.481 1.186,-3.266 13.351,0.294 12.162,3.561 3.561,8.013 3.561,8.013 l 0.592,1.481 -1.778,2.671 c -4.452,2.672 -3.857,6.823 3.264,0.89 3.559,5.044 0.296,-6.526 15.427,0.297 3.56,-1.484 1.778,6.528 6.824,2.076 0,0 -0.593,4.155 6.229,2.079 6.823,-2.079 3.857,2.076 3.857,2.076 0,0 5.043,-2.373 7.714,-1.187 2.67,1.187 1.269,2.756 12.462,4.151 4.746,0.596 0,3.858 -3.561,3.561 0.295,2.969 12.219,7.566 10.086,3.561 -2.374,-4.45 -0.89,-4.45 2.373,1.187 3.264,5.64 10.682,-2.668 10.682,-2.668 0,0 4.746,3.854 3.56,6.228 -1.188,2.374 2.374,4.156 2.374,4.156 4.449,-1.782 13.336,4.896 -1.779,3.56 -10.089,-0.89 -4.453,4.152 -3.561,4.747 0.89,0.592 6.823,-5.342 7.416,5.045 0.595,10.383 3.266,6.228 3.266,6.228 0,0 7.12,-2.667 6.228,4.155 -0.89,6.823 -1.777,9.197 5.64,15.428 7.414,6.231 -3.561,7.418 -5.64,5.636 -2.076,-1.778 -9.788,-2.076 -12.161,-0.297 -2.375,1.781 -0.893,-2.373 2.373,-2.667 3.263,-0.298 0.89,-4.453 6.525,-6.232 5.637,-1.781 -7.418,-5.636 -9.494,-4.154 -2.075,1.484 -10.681,-2.668 -18.69,-0.593 l -1.188,-1.781 c 0,0 -5.341,0.298 -5.043,1.781 0.297,1.485 -8.01,-1.187 -11.272,2.966 -3.266,4.155 2.964,10.387 0,13.649 4.448,1.778 6.822,9.494 5.934,13.054 -0.893,3.561 6.227,2.966 6.227,2.966 0,0 3.561,1.187 -0.293,7.12 3.854,1.484 2.373,8.902 1.188,11.276 -1.188,2.373 3.559,5.636 2.373,8.898 -1.188,3.266 5.934,3.266 5.934,3.266 0,0 2.965,7.712 5.338,9.788 2.374,2.079 8.039,-3.016 7.12,-11.272 -0.296,-2.671 4.45,0.89 4.45,0.89 0,0 5.64,4.747 5.045,7.418 -0.592,2.671 -1.779,5.934 -5.339,3.561 -1.484,5.637 -0.595,13.351 5.934,11.867 -0.299,-3.263 2.668,-2.671 2.668,-2.671 0,0 -5.649,-4.896 5.64,-2.076 5.934,1.484 2.373,-5.342 5.636,-11.275 3.263,-5.935 5.636,-7.713 -1.782,-7.416 -7.414,0.295 -9.165,-5.437 -9.787,-7.417 -1.783,-5.637 -1.025,4.247 -9.201,-8.01 -2.964,-4.453 1.902,-2.345 -3.854,-6.826 -2.671,-2.076 2.965,-8.899 2.965,-8.899 0,0 -2.965,-4.746 -8.308,-2.373 -5.339,2.373 -1.187,-5.045 0,-4.747 1.188,0.298 5.343,1.484 7.418,0 2.077,-1.484 4.45,2.671 4.45,2.671 0,0 -1.712,16.368 6.823,14.535 4.154,-0.89 3.856,9.494 10.386,1.484 h 2.965 c 0,0 1.188,-4.449 3.264,-3.561 2.079,0.89 1.782,-6.23 0.893,-8.01 -0.893,-1.781 10.219,0.193 5.934,13.055 -1.781,5.339 -8.308,4.747 -8.308,4.747 l 3.561,6.23 c 3.262,9.494 8.307,10.681 6.524,21.656 -0.411,2.522 -6.23,3.266 -6.23,3.266 0,0 -0.591,6.823 -8.899,6.526 -8.308,-0.297 -5.044,2.075 -6.231,2.373 -1.186,0.297 0.298,6.529 -2.373,6.822 -2.67,0.298 -2.67,10.979 -10.384,2.374 -7.714,-8.602 -2.67,12.165 0.89,7.715 3.561,-4.448 1.485,8.308 2.969,5.34 1.48,-2.966 0.89,10.978 -9.199,11.573 -10.085,0.591 1.483,7.414 3.857,6.823 2.373,-0.596 2.969,2.671 -9.791,2.373 -12.757,-0.298 -10.087,13.352 2.078,9.196 12.162,-4.152 5.934,1.187 5.934,1.187 l 2.668,2.076 c 0,0 -1.041,0.449 -1.262,1.857 -0.219,1.408 3.934,3.484 4.822,4.076 0.893,0.596 4.748,8.307 3.857,10.387 -0.89,2.076 4.748,9.494 -16.614,5.041 -2.373,3.561 -14.538,0.595 -14.538,0.595 0,0 3.836,4.624 -6.229,5.339 -4.155,0.298 5.637,1.782 6.526,8.604 0.89,6.823 3.857,8.01 3.857,8.01 l -0.297,9.792 c 0,0 2.373,5.637 11.569,2.671 0,5.934 4.155,10.978 13.947,3.561 h 5.934 c 0,0 -1.188,-5.343 8.307,-5.343 1.188,-2.373 -1.781,-3.854 1.778,-7.712 3.562,-3.857 -6.822,-6.528 4.747,-14.241 11.57,-7.715 -4.747,-1.781 4.155,-13.054 -2.079,-3.263 -7.12,-16.023 5.934,-7.716 0.295,-4.747 1.188,-13.646 2.374,-13.646 1.186,0 13.988,-5.038 13.054,7.12 -0.297,3.857 5.637,-1.782 13.055,7.121 6.229,-0.298 13.646,2.965 13.646,2.965 0,0 -2.02,5.924 -0.591,13.054 0.591,2.969 -5.343,1.187 -5.343,1.187 -1.483,7.716 9.494,4.453 12.462,4.155 2.966,-0.297 -3.559,-7.12 -3.559,-7.12 -1.188,-5.637 10.975,-10.681 -0.596,-15.428 0,0 11.275,-3.857 -5.338,-5.342 -14.492,-1.291 -9.201,-4.747 -9.201,-4.747 0,0 -8.898,0.297 -9.787,-7.712 -10.091,-0.298 -5.934,-17.503 5.339,-2.969 11.274,14.538 0,-3.56 13.649,6.529 4.448,0 12.458,2.671 13.053,4.746 0.592,2.076 1.482,8.309 1.482,8.309 0,0 4.451,-1.783 4.746,1.777 0.297,3.561 9.494,7.418 10.68,5.934 1.188,-1.48 7.907,6.203 3.268,-3.854 -1.783,-3.856 2.373,-3.856 2.373,-3.856 2.373,-5.638 -8.307,-0.891 -8.902,-7.121 -0.592,-6.231 -1.188,-10.682 -1.188,-10.682 0,0 5.343,-2.373 5.637,0 2.08,-1.781 -0.889,-15.13 -5.041,-13.054 -4.155,2.076 4.747,-6.231 -3.561,-9.494 1.48,-4.747 -5.044,-4.154 -2.969,-10.088 -4.747,-1.779 -3.263,-6.229 -0.592,-6.229 -1.186,-2.671 3.561,-3.858 3.561,-3.858 0,0 0.89,-5.342 4.748,-3.561 -1.188,-4.154 -1.485,-11.867 0.591,-11.274 2.075,0.595 2.374,2.373 2.374,2.373 0,0 2.964,2.674 -0.149,6.678 -3.113,4.003 2.522,3.709 2.522,3.709 0,0 5.934,-0.595 7.715,2.075 3.561,-2.075 6.525,0 6.525,0 0,0 2.076,3.858 7.121,4.45 5.045,0.595 2.152,12.311 -5.339,13.351 -10.681,1.485 -4.452,7.714 -7.12,10.979 -2.671,3.263 -8.307,-0.298 -7.121,19.281 2.077,5.934 6.823,5.64 6.823,8.014 0,2.373 -1.484,0.89 -1.484,0.89 0,0 -0.297,5.044 6.528,8.307 6.825,3.263 6.229,-0.298 7.713,-1.187 1.483,-0.89 -0.89,-3.857 3.263,-3.857 -0.592,-3.263 1.782,-9.792 3.561,-7.713 2.969,-3.857 4.746,10.086 6.231,6.823 1.483,-3.263 -0.593,-8.902 -0.593,-8.902 0,0 2.076,-3.263 8.899,11.275 -0.89,6.823 9.494,15.428 1.188,16.614 -8.307,1.188 4.448,6.526 -8.899,8.308 -2.671,4.747 -7.716,1.778 -7.716,1.778 0,0 2.373,5.64 -13.646,2.969 -0.296,6.525 -12.163,3.263 -7.715,6.525 4.449,3.267 -2.671,3.267 0.596,14.241 -4.453,1.484 -16.913,0.595 -17.803,0 -0.891,-0.593 -1.186,-8.01 -7.715,-0.89 -5.338,-0.889 -9.626,-0.244 -12.459,0.89 -5.934,2.373 -1.484,-7.415 -2.968,-8.899 -1.485,-1.484 3.211,-11.446 -1.78,-10.681 -7.714,1.187 -9.79,-2.374 -13.351,0.592 -3.56,2.968 -13.352,6.528 -15.13,6.528 -1.782,6.231 -8.903,10.979 -11.276,11.272 0,6.231 -10.681,6.529 -10.681,6.529 0,0 0.595,6.822 -6.524,7.12 -7.121,0.298 0.591,5.636 -16.913,2.671 -0.595,8.308 -8.307,11.272 -9.494,14.241 -1.186,2.966 9.498,30.855 -17.801,30.855 -1.483,0 2.373,2.373 2.373,2.373 0,0 0.891,3.854 -2.075,6.229 -2.968,2.373 -0.595,11.275 -6.231,15.133 -5.636,3.855 -10.979,31.149 1.188,37.976 2.373,-3.858 5.934,5.041 0,10.682 -4.748,-1.188 -5.934,2.373 -5.934,5.636 0,3.263 -5.935,6.231 -5.935,6.231 4.747,3.56 -2.117,4.918 4.747,9.493 2.671,1.778 -8.009,9.494 3.561,9.788 11.57,0.299 13.353,5.64 13.353,5.64 0,0 1.777,3.264 3.261,3.561 1.485,0.294 -0.888,2.373 -0.888,2.373 l 0.293,3.264 c 0,0 8.903,-2.374 10.387,14.24 1.482,16.614 17.503,3.857 17.503,3.857 0,0 6.526,24.922 18.988,9.494 6.823,-1.484 18.988,1.188 18.988,1.188 0,0 3.561,-3.268 3.561,-5.641 0,-2.373 3.857,-2.668 4.747,0.298 0.889,2.968 6.266,-2.87 6.266,-2.87 0,0 3.261,-15.582 19.412,-18.668 l 3.103,-1.898 c 0,0 3.607,4.382 2.99,6.196 -0.617,1.812 2.43,-0.595 2.43,-0.595 0,0 4.861,9.277 6.099,7.771 1.236,-1.505 5.925,-11.211 7.288,-2.945 1.662,0.253 4.035,2.627 4.332,4.11 0.298,1.481 2.373,-0.297 2.373,-0.297 -1.777,-4.747 3.561,-13.649 5.343,4.152 1.778,17.801 -5.64,7.715 -0.893,21.659 6.231,-1.78 6.231,4.155 6.231,4.155 0,0 8.01,3.561 3.56,6.524 -4.449,2.97 5.343,7.716 -0.297,22.548 8.902,2.374 7.422,8.855 -2.374,8.309 -5.339,-0.298 -2.964,15.428 -9.493,20.174 1.781,5.934 -10.086,13.352 -1.187,18.988 -2.375,5.341 -1.481,11.867 -1.481,11.867 0,0 -5.045,2.373 -4.452,16.614 -5.934,3.858 -4.153,10.383 -3.561,11.867 4.453,0.596 14.24,-9.196 16.32,-13.943 2.075,-4.747 1.777,2.076 7.711,-5.637 5.934,-7.714 8.309,-8.307 10.09,-8.604 1.777,-0.297 3.56,-2.67 4.747,-8.901 5.637,-1.48 5.339,-5.636 8.01,-8.308 2.67,-2.667 8.009,-8.308 10.384,-9.493 2.373,-1.188 0.888,-5.34 0.888,-5.34 0,0 3.266,-3.856 4.748,-2.968 1.483,0.892 3.561,-8.602 2.078,-11.272 -1.483,-2.671 7.712,-2.373 7.712,-2.373 0,0 -1.186,-2.969 1.782,-2.373 -0.893,-7.121 7.713,-9.792 3.855,-19.286 5.044,0.594 2.671,-9.791 9.199,-9.791 1.778,-3.561 0.89,-10.087 -0.298,-11.273 4.748,0.89 8.899,-6.529 10.682,-9.197 1.778,-2.67 16.019,-27.592 7.712,-36.196 2.67,-12.459 1.78,-18.69 1.186,-20.175 -0.591,-1.483 10.141,-10.466 7.121,-22.548 -1.778,-7.12 3.561,-8.898 5.934,-17.802 2.374,-8.899 -4.746,-3.262 0.595,-14.24 5.339,-10.978 -1.781,-8.307 -1.781,-8.307 0,0 2.079,-9.792 4.747,-10.681 2.672,-0.89 -2.966,-9.494 -2.966,-9.494 0,0 -0.595,-5.045 2.076,-5.636 2.672,-0.596 0,-9.494 -2.372,-10.09 2.372,-2.373 1.483,-9.196 0.594,-12.459 -0.893,-3.263 2.965,-10.383 -0.594,-11.275 -2.967,3.266 -0.299,5.64 -1.779,10.089 -1.483,4.449 1.779,11.57 -4.747,13.055 -6.528,1.483 -4.155,-7.418 -4.155,-7.418 0,0 -0.297,-5.045 -3.263,-4.748 -2.968,0.298 -2.671,-3.262 -2.671,-3.262 0,0 -5.045,3.857 -4.747,-2.076 0.297,-5.934 -1.188,-10.387 -1.188,-10.387 0,0 -3.262,0.297 -5.339,-2.965 -5.044,0 -2.968,-8.308 -2.968,-8.308 0,0 -4.449,-2.373 -4.746,-5.934 -2.673,2.075 -8.899,-7.418 -7.712,-8.902 1.186,-1.481 -7.121,-2.965 -7.716,-6.228 -0.593,-3.267 -5.339,-7.121 -7.121,-7.419 -1.778,-0.297 -0.593,-13.054 -0.593,-13.054 0,0 5.043,1.484 4.153,8.307 0.89,3.858 6.23,1.484 6.23,1.484 0,0 -4.325,2.444 5.934,4.152 3.561,0.596 3.561,6.231 3.561,6.231 h 3.858 c 0,0 2.965,9.494 2.373,13.352 2.966,2.374 6.229,1.187 6.229,1.187 0,0 0,4.45 3.266,6.823 3.263,2.373 4.152,5.934 4.152,7.12 0,1.188 7.417,0.298 7.715,3.858 0.295,3.56 -1.187,7.12 2.373,10.383 -1.186,4.152 2.668,8.01 2.965,0.298 0.298,-7.716 -1.483,-13.65 2.673,-16.023 2.67,-5.636 -1.188,-6.822 0,-12.459 1.186,-5.639 0,-22.548 -6.823,-23.44 -1.188,-5.042 0,-21.362 -2.969,-23.735 -2.965,-2.373 -1.779,-6.525 -1.779,-6.525 0,0 -5.342,-4.155 -4.154,-5.934 1.187,-1.781 -4.45,-13.054 -3.857,-0.595 -2.076,0 1.483,3.56 1.483,3.56 0,0 -3.858,1.485 -3.56,5.343 -3.562,-3.263 1.187,-6.823 -7.713,-6.231 -4.155,-3.262 0.592,-11.57 -4.155,-10.979 -4.746,0.596 -7.12,0.298 -5.934,-6.525 1.188,-6.822 4.155,2.374 4.155,2.374 0,0 3.561,0 6.229,2.076 2.671,2.075 10.978,-2.076 5.341,-5.339 0,0 4.153,-5.64 0.593,-6.529 -3.561,-0.889 -1.482,-5.339 -5.339,-7.712 2.671,-0.298 2.373,-5.342 2.373,-5.342 l 1.307,-1.541 c 23.759,48.16 37.122,102.44 37.122,159.85 -0.01,198.75 -160.2,359.93 -357.79,359.93 z M 399.7,105.68 c 0.149,0.889 -1.335,1.037 -2.373,1.48 -1.038,0.446 -1.629,3.266 1.038,3.561 1.039,1.339 5.014,0.921 5.014,0.921 0,0 0.627,-1.661 -1.304,-1.661 0.147,-0.446 -1.336,-1.038 -1.545,-1.365 -0.22,-0.33 0.35,-2.05 -0.84,-2.94 z m 5.7,0.39 c 1.275,0.06 -4.81,1.069 0.535,1.601 0.591,0.833 2.876,0.861 3.738,0.178 0.86,-0.684 0.116,-2.76 -0.919,-2.313 -1.041,0.443 -2.465,-0.534 -2.465,-0.534 l -0.9,1.06 z m 1.42,5.39 c -1.483,0.443 -1.879,0.801 -1.383,1.811 0.494,1.007 1.99,-0.475 3.32,0.712 1.32,1.19 1.32,-2.52 -1.94,-2.52 z m 12.41,42.48 c -1.778,0.987 0.789,2.366 1.975,1.579 1.19,-0.78 0.2,-1.58 -1.97,-1.58 z m 25.57,-3.01 c -1.631,0.889 1.187,1.777 1.93,1.777 0.74,0 0.593,-1.927 0.593,-1.927 0,0 -1.34,0.59 -2.52,0.15 z m -0.74,8.75 c -1.335,0.743 0.592,1.781 1.485,1.187 0.89,-0.6 0.15,-1.19 -1.48,-1.19 z M 378.05,98.437 c 0.418,0.177 0.804,0.206 1.041,0.034 0.539,-0.395 1.628,-0.606 1.249,-1.314 0.548,-0.96 -0.227,-2.008 -0.227,-2.008 0,0 5.193,-7.567 -3.115,-11.127 2.373,-1.188 5.934,-5.343 2.522,-10.829 0,0 2.82,-1.039 1.485,-6.526 8.749,-4.896 7.269,-7.566 -5.786,0.146 4.746,-4.746 -5.343,-2.965 -9.494,-1.187 -4.155,1.781 -17.21,0 -8.753,-2.816 8.453,-2.816 4.598,-6.082 -5.637,-2.966 -10.238,3.114 -9.939,0.443 -11.422,1.035 -1.483,0.595 -9.791,-2.373 -10.386,-5.339 -0.591,-2.968 -8.899,-3.56 -12.534,1.263 -1.264,-2.893 -12.979,3.484 -12.979,9.418 -14.242,2.374 -13.055,4.747 -9.494,5.339 7.119,-1.187 22.547,3.561 7.562,3.414 -14.983,-0.147 0.744,3.706 5.343,5.638 8.155,-1.039 10.681,5.044 10.681,5.044 0,0 -3.412,3.706 1.927,8.453 -7.712,4.154 -1.778,5.342 -1.778,8.308 0,2.968 -2.968,7.715 -4.304,8.459 -0.146,0.442 -2.52,0.74 -0.74,-0.744 1.781,-0.595 -1.188,-5.045 -3.412,-4.599 -7.547,1.517 -2.226,9.938 2.668,10.384 4.896,0.446 2.82,6.674 -1.333,4.301 -4.154,-2.374 -9.494,3.56 -5.49,6.975 -4.896,-1.336 -4.004,7.861 -0.591,12.165 -3.713,6.082 -0.447,14.684 4.301,15.275 4.746,0.595 4.746,1.187 7.269,7.864 2.519,6.678 11.127,-0.148 10.532,-6.678 -0.593,-6.525 6.23,-10.383 5.342,-9.494 0,0 5.934,-2.373 2.374,-2.965 -3.561,-0.595 0,-6.528 0,-6.528 l 6.525,0.595 c 7.119,5.339 9.345,-6.083 9.345,-6.083 0,0 9.051,-0.446 9.196,-5.636 0.148,-5.19 9.349,-1.335 13.649,-5.044 4.301,-3.706 9.345,-12.906 5.339,-16.909 -4.006,3.709 -10.827,-4.898 -3.561,-5.044 1.11,-0.02 1.99,-0.119 2.68,-0.269 z m 65.06,57.143 c 0.34,0.802 0.227,1.829 -0.115,1.946 -0.345,0.114 2.398,0.342 1.829,-0.801 -0.57,-1.15 -0.92,-1.83 -1.72,-1.15 z M 365.71,51.54 c 0.664,1.901 3.117,3.319 4.022,2.661 0.904,-0.655 2.892,-0.959 1.308,-2.466 -1.39,-1.322 -6.52,-2.423 -5.33,-0.195 z m 95.7,84.397 c 0.445,1.041 0.298,2.373 -0.149,2.522 -0.445,0.148 3.115,0.445 2.373,-1.038 -0.74,-1.48 -1.18,-2.37 -2.22,-1.48 z m 26.09,37.39 c 0.661,1.898 3.113,3.317 4.021,2.658 0.905,-0.654 2.89,-0.955 1.304,-2.462 -1.38,-1.32 -6.51,-2.42 -5.32,-0.2 z m -10.92,-4.89 c -0.149,0.137 -0.329,0.244 -0.415,0.439 0.196,0.58 0.24,1.282 0.711,1.744 -0.219,0.184 -0.495,0.301 -0.59,0.598 -0.061,0.272 -0.18,0.631 0.122,0.83 0.59,-0.124 1.245,-0.357 1.815,-0.079 0.424,-0.431 1.171,-0.438 1.171,-0.438 0.842,-0.486 0.775,-1.5 0.438,-2.281 l 0.287,-0.513 c -0.332,-1.199 -0.871,-2.411 -1.14,-3.671 l -0.468,-0.516 c -0.136,0.012 -0.274,0.034 -0.354,-0.118 -0.385,0.507 -0.949,0.231 -1.314,-0.06 -0.356,0.073 -0.733,0.225 -0.919,0.583 0.438,0.506 0.75,0.92 0.49,1.39 -0.261,0.467 -0.053,1.04 0.157,1.296 0.19,0.27 -0.82,0.4 0,0.8 z m -25.11,-4.02 c 0,0 -4.453,2.521 -3.561,2.968 0.89,0.446 4.746,1.633 1.034,2.226 -3.706,0.595 1.187,2.521 2.229,2.521 1.038,0 2.224,2.076 2.373,3.263 -2.522,1.931 4.301,2.819 4.151,3.263 -0.147,0.446 -1.186,3.857 -1.186,3.857 0,0 1.186,-0.595 1.781,0.593 0.592,1.187 0.297,1.781 0.297,1.781 0,0 2.966,-1.781 2.668,-1.484 -0.295,0.298 -0.74,1.633 -0.591,2.671 1.038,-0.148 1.186,1.484 0.296,3.709 -2.67,2.522 -1.186,3.263 0,3.263 -0.15,1.484 -1.04,5.343 1.78,3.857 2.815,-1.483 4.003,-0.148 1.335,2.374 -2.671,2.522 1.038,2.076 1.48,3.56 -0.74,2.817 4.305,2.077 4.9,0.15 1.926,2.521 1.926,-2.672 2.964,-2.672 1.038,0 3.263,0 4.005,-1.038 0.742,-1.038 1.338,-1.038 2.228,-1.187 0.889,-0.149 3.856,0.298 5.635,-2.225 1.782,-2.522 -3.56,-7.121 -3.56,-7.121 0,0 -5.785,0.89 -5.338,-1.927 0.442,-2.819 -4.603,-2.374 -4.9,-3.267 -0.293,-0.889 -2.075,-4.151 -4.892,-4.301 -1.337,-2.373 -4.155,0 -3.857,-4.006 0.297,-4.007 -0.446,-4.152 -1.188,-4.301 -0.743,-0.148 -2.226,-1.038 -2.671,-2.968 1.483,-3.412 -1.48,-3.412 -1.778,-3.264 -0.297,0.148 -0.744,6.525 -2.077,0.148 -1.32,-6.36 -3.39,-1.02 -3.54,-0.43 z m 152.39,85.38 c -1.508,0.006 -1.078,3.051 -0.167,2.165 0.906,-0.887 2.168,1.348 2.168,1.348 l 1.132,0.364 c 0,0 1.08,-3.052 1.353,-1.051 0.275,1.993 1.787,1.984 2.038,0.942 1.468,0.168 1.667,-3.092 1.667,-3.092 0,0 -2.224,0.57 -3.069,-0.737 -0.85,-1.29 -3.86,1.11 -5.12,0.07 z m -18.58,15.94 c -1.932,0.297 -0.447,2.671 0.442,1.781 0.889,-0.892 3.189,0.665 3.189,0.665 l 1.558,0.076 c 0,0 0.446,-2.672 1.411,-1.111 0.963,1.557 2.892,1.26 2.892,0.37 1.928,-0.151 1.188,-2.819 1.188,-2.819 0,0 -2.671,0.889 -4.154,0 -1.49,-0.89 -4.61,1.64 -6.53,1.04 z m 5.78,-7.12 c -0.939,0 -0.74,1.782 0.447,1.63 1.19,-0.14 3.11,-1.63 -0.45,-1.63 z m -7.86,-0.89 c 0.444,1.038 0.295,2.373 -0.15,2.519 -0.443,0.152 3.116,0.446 2.373,-1.035 -0.74,-1.49 -1.18,-2.38 -2.22,-1.49 z m -36.36,3.57 c 0.471,1.355 0.146,2.077 0.248,2.144 0.041,0.027 0.152,-0.053 0.413,-0.241 0.905,-0.655 6.251,-0.199 4.665,-1.706 -1.38,-1.31 -6.51,-2.42 -5.32,-0.19 z m -20.6,1.62 c 1.528,-0.534 -0.19,-2.509 1.148,-2.12 1.338,0.393 -0.021,-1.538 -0.949,-1.729 -0.93,-0.19 -1.9,3.42 -0.2,3.85 z M 404.3,444.197 c -1.632,0.297 -0.293,5.044 1.782,3.857 2.075,-1.188 0.74,-3.411 2.52,-3.411 1.781,0 4.006,-1.039 1.041,-1.634 -2.97,-0.6 -5.19,2.52 -5.34,1.18 z m -5.34,-16.17 c -1.633,-0.89 -1.483,2.079 -2.373,3.708 -2.82,1.931 -0.445,5.193 -0.298,3.561 0.149,-1.63 2.523,-2.225 2.374,-3.857 5.79,-5.78 0.6,-3.86 0.3,-3.41 z m 14.38,7.71 c 0.819,1.19 2.139,1.77 3.687,0.96 0.512,-1.732 0.512,-3.425 -0.212,-4.558 -1.055,-0.5 -2.213,0.459 -3.387,0.589 l -0.651,2.436 0.56,0.57 z m 18.26,-113.15 c 2.143,-0.487 1.254,5.203 3.667,2.924 2.41,-2.27 -0.03,-5.4 -3.67,-2.92 z m -7.6,-11.33 c 0.474,1.925 2.209,3.354 2.849,2.69 0.639,-0.662 2.045,-0.966 0.924,-2.491 -0.98,-1.34 -4.61,-2.45 -3.77,-0.2 z m 6.73,-8.85 c 2.187,-0.766 -0.271,-3.589 1.644,-3.028 1.91,0.558 -0.033,-2.203 -1.356,-2.475 -1.32,-0.27 -2.71,4.89 -0.28,5.51 z m 8.32,11.87 c 0.163,2.066 2.236,3.249 3.308,2.328 1.068,-0.917 3.119,-1.623 1.937,-3.065 -1.05,-1.27 -5.86,-1.6 -5.25,0.74 z m -261.14,120.61 c -1.052,0.342 1.05,1.295 2.535,2.336 1.48,1.035 -0.895,2.668 -3.54,3.322 -2.648,0.656 -0.913,3.799 -0.17,3.203 0.74,-0.592 1.186,-0.297 1.781,-0.297 0.592,0 4.597,1.335 4.597,-0.593 0,-1.931 2.371,-2.373 3.844,-3.401 1.466,-1.025 1.646,-3.275 1.506,-4.57 -0.139,-1.291 -1.791,-3.155 -2.513,-2.174 -0.727,0.979 -3.872,0.651 -4.767,1.096 -0.88,0.44 -1.92,0.88 -3.27,1.07 z m -21.05,-1.08 c 0,1.483 2.225,0.594 1.483,1.633 -0.744,1.038 1.331,0.443 1.779,-0.299 0.45,-0.73 -2.37,-2.66 -3.26,-1.33 z m 9.35,-13.64 c 1.337,0.445 -1.037,3.263 1.041,2.82 2.07,-0.45 1.78,-2.97 -1.04,-2.82 z m -2.07,6.8 c -0.714,-1.301 -2.238,0.547 -2.086,-0.718 0.151,-1.271 -1.384,0.249 -1.417,1.114 -0.03,0.87 3.37,1.21 3.51,-0.39 z m 4.29,-12.14 c -0.382,1.213 0.097,2.568 0.664,2.418 0.573,-0.152 1.441,0.147 1.334,-1.058 -0.08,-1.06 -1.7,-2.87 -1.99,-1.36 z m -1.9,-6.9 c 1.451,0.308 1.041,-2.054 1.904,-1.114 0.86,0.944 0.713,-1.212 0.08,-1.8 -0.63,-0.59 -3.1,1.76 -1.98,2.91 z m -8.18,-19.21 c 0,1.483 2.223,0.595 1.48,1.633 -0.739,1.038 1.337,0.442 1.782,-0.298 0.44,-0.74 -2.37,-2.67 -3.26,-1.33 z m 3.85,5.49 c -0.591,1.188 0.148,2.519 1.039,2.373 0.889,-0.147 2.246,0.146 2.076,-1.04 -0.15,-1.04 -2.67,-2.82 -3.12,-1.33 z m -39.52,-47.29 c 0.37,-1.367 1.389,-0.607 2.035,0 0.645,0.61 0.047,-1.826 0.047,-1.826 0,0 -0.047,-1.522 -1.62,-0.304 -1.58,1.22 -0.65,2.8 -0.47,2.13 z m 2.7,7.46 c 0.949,-0.19 0.598,-0.854 0.471,-1.52 -0.126,-0.667 -1.336,0.251 -1.054,0.302 0.278,0.05 0.62,0.376 0.459,0.547 -0.16,0.18 -0.43,0.8 0.12,0.67 z m -5.45,-17.28 c -0.894,0.592 0.293,1.039 0.739,1.039 0.446,0 0.446,0.889 0.149,1.335 -0.298,0.446 2.521,0 1.778,-1.037 -0.75,-1.05 -1.19,-2.38 -2.67,-1.34 z m -5.05,-10.24 c 1.183,-1.336 4.45,-0.596 6.525,0 2.076,0.595 0.152,-1.782 0.152,-1.782 0,0 -0.152,-1.484 -5.194,-0.298 -5.04,1.19 -2.06,2.73 -1.48,2.08 z m 159.17,-104.29 c -0.743,-1.483 -0.743,2.82 -0.743,3.561 0,0.744 -1.188,0.149 -1.188,1.633 0,0.332 3.149,2.058 2.82,0 -0.593,-3.708 1.038,-2.225 1.633,-3.857 1.23,-3.36 -1.92,-2.36 -2.52,-1.33 z m -45.98,-108.73 c -0.889,0.148 -0.298,1.927 0.74,1.483 1.039,-0.445 2.225,-1.04 2.672,-0.298 0.445,0.741 0,-2.075 -1.782,-1.633 -0.88,0.22 -1.04,1.04 -1.63,0.45 z m 28.48,-9.41 c 0.062,-0.357 -0.297,-0.475 -0.711,-0.298 -0.177,0 -0.177,0.298 -0.177,0.652 0,0.37 0.65,0.19 0.89,-0.35 z m 7.86,-2.31 c 0.149,-0.893 -0.74,-1.187 -1.78,-0.74 -0.444,0 -0.444,0.74 -0.444,1.63 0,0.89 1.63,0.45 2.22,-0.89 z M 236.23,67.85 c -3.562,-0.442 -2.079,1.779 -0.595,2.077 -0.744,0.147 -0.146,1.927 0.595,3.113 0.74,1.188 -0.297,2.82 -0.893,4.304 -0.595,1.484 -2.221,-1.781 -2.221,-2.819 0,-1.038 -4.305,-1.484 -3.415,0.148 0.889,1.634 -0.74,4.598 0.445,5.488 -0.445,4.303 1.038,4.006 1.782,6.23 0.74,2.226 6.526,5.193 7.121,2.076 0.591,-3.114 4.594,-1.038 4.594,-3.263 0,-2.225 2.525,-1.336 3.416,-3.411 0.89,-2.076 1.037,0.148 2.075,-3.118 1.038,-3.262 -2.373,-4.301 -2.82,-2.815 -0.442,1.483 -1.483,3.857 -3.559,3.56 1.183,-1.63 0.743,-3.411 0.595,-3.56 -0.152,-0.146 -2.08,2.373 -2.08,0.442 1.485,-4.152 -0.89,-5.189 -0.89,-5.189 v -0.89 c 0,0 2.229,1.038 1.336,-1.484 -0.91,-2.522 -3.73,-1.632 -5.5,-0.889 z m 18.54,-1.483 c 0,0 -1.777,0.297 -1.335,1.037 0.447,0.744 2.075,1.633 0,2.077 -2.075,0.446 0,2.075 0,2.075 l 1.931,-0.74 c 0,0 0.89,-0.889 2.225,0.298 1.336,1.187 3.113,-1.633 1.633,-2.077 -1.484,-0.445 -0.893,-0.147 -1.78,-2.521 -0.9,-2.375 -2.68,-1.187 -2.68,-0.149 z m 21.21,-11.571 c -2.966,0 -5.19,2.076 -1.928,4.449 2.373,0.298 1.925,1.19 1.335,1.782 -0.595,0.592 0,1.63 0,1.63 0,0 -2.968,1.336 -3.856,2.373 -0.89,1.038 0.886,1.19 2.373,0.446 v 2.225 c 0,0 -2.522,1.782 -3.561,0.74 -1.037,-1.038 -1.484,1.633 0,2.374 1.485,0.74 4.892,0.301 6.822,-0.889 1.484,0.889 5.194,1.335 5.194,1.335 0,0 2.969,4.152 4.3,-0.446 1.337,-4.599 0.149,-3.854 0.149,-3.854 0,0 2.225,-4.453 -0.89,-5.045 -3.116,-0.595 3.412,-1.336 3.412,-1.336 l 0.148,-1.633 c 0,0 0.89,-2.961 2.225,-2.965 1.336,0 0.146,-5.637 -4.45,-4.155 -4.598,1.484 -6.23,0.741 -6.23,0.741 0,0 -3.411,0.743 -1.781,1.633 1.66,0.893 -3.24,0.595 -3.24,0.595 z m -39.16,8.75 c -0.296,-0.889 1.932,-1.038 3.264,0 0.744,-0.298 0.446,-2.076 0.893,-3.113 0.446,-1.038 -0.148,-2.076 -0.446,-1.485 -0.295,0.596 -1.633,0.741 -2.373,0.893 -0.447,0.443 -2.077,1.481 -3.561,1.333 -3.11,-10e-4 1.34,1.632 2.23,2.372 z m 13.5,-7.86 c -4.599,-1.634 -3.118,0 -4.599,0.594 -1.928,2.521 1.927,1.188 1.927,2.077 0,0.889 -1.187,0.591 -0.148,1.483 1.042,0.89 4.45,-1.187 2.82,-1.483 -1.63,-0.298 0,-1.633 0,-2.671 z m 17.06,5.784 c -0.261,0.254 -0.644,0.282 -1.029,0.301 -0.072,0.381 0.247,0.696 0.412,1.058 0.512,0.11 0.93,-0.26 1.443,-0.152 0.233,-0.288 1.043,-0.443 0.821,-0.905 -0.48,-0.289 -1.08,-0.26 -1.64,-0.302 z m -7.86,-21.51 c -2.075,0 0,2.373 0.893,2.373 0.889,0 0.442,1.187 2.221,1.484 1.782,0.298 1.042,-2.671 0.447,-2.373 -0.6,0.299 -1.36,-1.484 -3.56,-1.484 z m 200.26,20.62 c 4.152,-0.297 7.121,0.295 8.307,0.295 1.188,0 3.855,-0.889 4.748,0 0.89,0.893 4.743,-5.931 -2.229,-4.893 -6.973,1.038 -5.487,1.038 -7.563,-0.446 -2.077,-1.484 -3.561,-3.857 -5.343,-3.56 -1.778,0.297 -5.041,-2.076 -4.448,-3.561 0.595,-1.484 -5.339,-0.89 -6.823,-1.782 -1.483,-0.889 -4.449,-5.636 -6.231,-5.934 -1.186,2.672 1.484,7.716 6.231,8.013 0.89,4.153 6.525,8.308 8.009,8.308 1.47,10e-4 5.33,3.56 5.33,3.56 z M 410.23,40.407 c -8.308,9.196 1.483,2.373 1.187,5.637 -0.295,3.263 4.155,0.297 3.857,2.373 0.89,4.45 9.196,-0.596 6.528,-1.187 -2.67,-0.596 -3.857,-5.934 -2.968,-7.716 -1.78,-1.778 -4.45,-0.592 -8.61,0.893 z m -9.79,19.877 c -2.08,2.077 0.294,8.308 2.965,8.011 2.671,-0.298 6.823,-1.485 6.823,-1.485 0,0 2.079,4.155 0,5.342 -2.077,1.187 -8.108,0.668 -0.294,3.561 8.009,2.965 10.086,2.076 10.681,0.592 0.591,-1.48 3.262,-6.525 4.746,-6.229 1.188,-2.671 -4.155,-5.044 -1.187,-6.826 2.965,-1.778 0.592,-8.307 0.592,-8.307 0,0 -4.151,0.298 -5.934,3.266 -1.779,2.966 -4.152,-0.297 -5.934,-0.297 -0.298,1.778 -1.484,3.263 -1.484,3.263 l -1.187,-2.671 c 0,-0.002 -8.31,-0.297 -9.79,1.78 z m -14.83,69.423 c -3.263,-3.263 -4.747,0 -2.077,4.453 -3.857,-0.893 -6.528,2.373 -3.263,2.373 3.263,0 11.867,3.561 4.152,3.561 -7.711,0 -0.592,4.152 2.374,3.854 2.968,-0.294 2.968,-0.592 5.045,0.298 2.075,0.889 6.231,-0.89 6.231,-0.89 0,0 1.48,-5.045 5.636,-5.637 1.778,-7.12 -5.045,-10.386 -6.823,-9.79 -1.781,0.591 -1.485,2.075 -3.561,2.67 -2.09,0.6 -5.82,1.02 -7.72,-0.88 z M 229.85,67.997 c -0.188,0.25 -0.463,0.278 -0.74,0.298 -0.055,0.372 0.177,0.684 0.294,1.04 0.37,0.108 0.674,-0.256 1.041,-0.151 0.169,-0.281 0.754,-0.434 0.592,-0.889 -0.35,-0.29 -0.77,-0.257 -1.18,-0.298 z m 20.47,-21.363 c -0.187,0.25 -0.462,0.279 -0.745,0.298 -0.05,0.374 0.182,0.684 0.298,1.041 0.371,0.108 0.671,-0.256 1.042,-0.152 0.168,-0.28 0.75,-0.433 0.591,-0.889 -0.35,-0.288 -0.78,-0.257 -1.19,-0.298 z m -5.79,1.339 c -0.661,-0.316 -1.392,-0.373 -2.078,-0.595 -0.428,1.709 -2.041,0.993 -3.263,0.89 -0.398,0.715 -0.753,0.266 -1.485,0.298 -1.186,0.601 -1.683,1.408 -1.186,2.67 0.772,0.801 0.746,1.826 1.483,2.671 1.267,-0.588 1.994,-1.955 1.782,-3.266 1.174,0.664 2.024,-0.544 3.263,-0.592 0.443,0.77 1.37,0.734 2.076,0.297 0.05,-0.848 0.1,-1.743 -0.58,-2.373 z m 17.81,1.778 c -0.08,-0.91 -0.716,-1.262 -1.188,-1.778 -2.52,-0.43 -3.383,2.513 -3.561,4.45 -0.661,0.123 -0.598,0.785 -0.893,1.187 -0.157,1.281 -0.389,2.937 -1.778,3.263 -0.168,1.364 0.733,2.513 1.778,3.263 0.143,-0.839 1.099,-0.655 1.485,-1.188 h 0.888 c 0.792,1.087 1.874,0.855 2.375,-0.294 0.113,-0.601 0.445,-1.098 0.893,-1.484 -0.258,-0.243 0.727,-0.901 -0.298,-0.89 0.256,-0.246 -0.729,-0.901 0.298,-0.892 0.079,-0.285 -0.089,-0.446 -0.298,-0.592 0.298,-1.484 -0.063,-3.098 0.889,-4.45 l -0.58,-0.595 z m -27.45,71.356 c -0.187,0.247 -0.462,0.275 -0.743,0.295 -0.051,0.373 0.18,0.684 0.298,1.041 0.369,0.107 0.671,-0.253 1.04,-0.148 0.168,-0.285 0.75,-0.438 0.593,-0.893 -0.35,-0.28 -0.78,-0.25 -1.19,-0.29 z m 6.82,-6.23 c 0.595,-0.148 -0.447,-2.374 0.148,-3.561 0.592,-1.187 0.89,-0.89 0.592,-2.522 -0.295,-1.633 -1.778,-0.592 -2.519,0.149 -0.063,0.819 -1.069,1.003 -1.188,1.778 -0.892,-0.25 -1.554,0.23 -2.075,0.893 0.497,-0.104 0.568,0.424 0.889,0.592 v 0.889 c 1.387,0.665 1.187,2.095 0.89,3.267 0.642,1.072 1.497,1.797 2.671,2.076 1.56,-0.56 1.45,-2.23 0.6,-3.57 z m 19.81,5.26 c -0.374,-2 -4.672,0.816 -7.64,-0.52 -0.38,-0.839 -1.137,-0.55 -1.778,-0.595 -0.418,0.292 -0.76,0.614 -0.595,1.188 -1.21,0.063 -2.564,-0.744 -3.561,0.595 -1.296,0.366 -1.655,-1.602 -2.966,-1.188 -0.81,1.105 -1.782,1.336 -2.968,0.593 -1.038,1.187 -2.681,2.759 -1.188,4.746 0.442,0.596 3.26,1.634 3.484,-0.072 1.022,0.377 2.082,0.032 3.117,0.148 0.44,0.484 1.178,0.152 1.631,0.595 0.519,0.813 1.554,1.561 1.78,1.188 l 0.669,-0.671 c 1.55,1.319 -0.175,2.705 0,4.155 1.815,2.705 4.022,5.048 6.528,7.12 -1.032,4.104 2.243,8.007 6.525,7.712 -0.336,-0.921 0.931,-1.445 0.594,-2.373 -2.268,-2.434 -1.869,-5.826 -2.373,-8.898 1.273,0.974 2.754,0.484 4.152,0.591 2.241,-3.582 1.257,-9.304 -2.373,-11.867 v -4.151 c -0.811,-1.456 -1.643,-0.887 -2.965,-0.596 -0.118,1.196 0.714,2.007 1.186,2.969 0.38,0.78 -0.85,-0.38 -1.25,-0.66 z m 23.81,6.01 c -0.045,-3.197 -1.716,-6.209 -1.188,-9.494 -1.323,-2.044 -2.326,-4.573 -2.373,-7.12 1.453,-0.934 3.117,-1.301 4.746,-1.779 -0.445,-1.551 0.076,-3.224 -0.595,-4.746 -1.221,-0.526 -1.744,-2.446 -3.56,-1.782 0.237,-1.016 -1.842,-0.484 -1.187,-1.778 v -5.342 c 0.413,0.291 1.497,0.613 1.335,1.187 2.769,-0.487 4.352,2.079 4.599,4.747 2.174,-1.614 1.721,-4.69 1.782,-7.12 -1.273,-0.703 -2.265,-1.694 -2.97,-2.966 -1.471,0.411 -2.747,-0.57 -4.151,-0.595 v -4.747 c -0.431,-1.12 -1.947,-0.063 -2.373,-1.187 -0.418,-1.082 -0.391,-2.26 -1.188,-3.561 h -1.782 c -2.534,-3.02 -7.082,-2.292 -10.68,-1.778 -1.874,1.158 -2.843,3.099 -4.153,4.746 -2.334,-0.646 -3.895,-2.98 -6.528,-2.968 -0.716,0.703 -0.819,1.861 -1.778,2.373 -0.246,1.643 1.011,3.089 0.593,4.748 h -1.188 c 0.349,1.145 -1.37,0.218 -1.188,1.186 -0.544,2.333 0.479,3.604 2.375,4.748 1.301,-0.681 2.796,-0.681 4.155,-1.188 -0.732,0.864 1.318,0.329 0.591,1.188 1.557,0.342 2.835,-0.514 4.155,-1.188 1.618,-0.449 2.579,0.69 3.561,1.782 0.303,1.088 -0.368,1.984 -0.595,2.965 1.493,0.409 2.585,1.181 3.561,2.374 0.034,1.692 -1.223,3.057 -1.188,4.746 1.382,1.687 2.928,0.438 4.747,0.595 -1.873,0.839 -4.757,0.757 -4.152,3.561 1.898,-0.062 0.561,1.677 1.778,2.374 -1.072,1.684 -0.411,3.56 -0.591,5.339 -0.073,0.955 -0.932,1.519 -1.188,2.373 -0.607,1.99 -1.633,1.89 -1.188,3.561 0.77,-0.336 0.745,1.715 1.78,0.595 v 1.778 c 1.252,1.275 2.38,2.516 2.968,4.156 0.288,0.816 1.066,1.021 1.63,1.335 0.861,-0.114 1.446,-0.956 2.373,-0.89 1.778,0 4.449,1.63 5.193,0.146 0.77,-1.5 2.55,-1.94 3.89,-2.39 z m -15.81,77 c 0.573,0.013 0.962,-0.396 1.466,-0.329 0.573,-0.873 0.883,-2.247 0.003,-3.042 -0.443,-0.398 -0.541,-0.927 -0.389,-1.553 -0.108,-0.222 -0.222,-0.481 -0.612,-0.51 -1.438,-0.102 -3.113,-0.617 -4.256,0.852 -1.331,2.519 -2.801,5.032 -4.781,6.879 0.236,0.817 -0.912,0.954 -0.674,1.767 -0.624,0.07 -1.052,-0.37 -1.507,-0.737 0.29,1.705 -1.694,2.431 -1.402,4.133 -0.937,0.083 -1.101,0.867 -1.192,1.722 -2.747,0.466 -5.365,1.579 -8.051,2.345 0.037,0.979 -1.5,0.497 -1.197,1.722 l -1.037,-0.092 c 0.509,1.716 -0.446,2.985 -0.415,4.83 -0.689,-0.808 -0.404,1.319 -1.092,0.512 -0.36,2.237 -1.291,4.301 -1.614,6.548 2.098,1.304 5.245,0.184 6.959,-1.829 0.928,0.363 1.769,-0.222 2.648,-0.38 2.191,1.89 4.91,0.111 7.22,1.231 l 1.089,-0.516 c -0.165,0.702 0.133,1.269 0.364,1.857 0.214,0.443 -0.716,1.108 -0.197,0.987 -1.389,0.529 -1.645,0.352 -3.073,0.551 -1.515,1.728 -3.475,2.582 -5.506,3.174 2.43,2.614 4.835,-1.475 7.424,-1.181 1.254,-2.613 4.205,-3.373 6.546,-3.085 3.11,-2.772 5.55,-7.114 4.677,-11.754 -1.566,0.229 -2.449,-1.462 -3.428,-2.728 l -1.038,-0.092 c -0.781,-1.25 -1.288,-3.01 -2.854,-3.285 -0.531,-1.414 0.14,-1.607 0.209,-2.411 0.836,0.845 1.357,-0.769 2.127,-0.427 1.6,-1.32 1.47,-5.2 3.57,-5.15 z m 171.31,-9.46 c -0.434,0.38 -0.942,0.693 -1.188,1.256 0.562,1.655 0.681,3.658 2.018,4.981 -0.614,0.516 -1.4,0.857 -1.679,1.702 -0.167,0.785 -0.509,1.798 0.358,2.367 1.675,-0.345 3.548,-1.016 5.174,-0.225 1.215,-1.225 3.348,-1.247 3.348,-1.247 2.406,-1.382 2.222,-4.281 1.251,-6.516 l 0.821,-1.462 c -0.949,-3.421 -2.483,-6.893 -3.256,-10.487 l -1.338,-1.475 c -0.386,0.034 -0.779,0.095 -1.016,-0.33 -1.092,1.437 -2.712,0.659 -3.75,-0.177 -1.025,0.209 -2.095,0.646 -2.615,1.657 1.241,1.456 2.131,2.644 1.39,3.979 -0.739,1.333 -0.148,2.966 0.446,3.706 0.6,0.74 -2.29,1.12 0.05,2.27 z m 148.9,60.93 c 0.478,0.167 0.854,0.839 1.355,0.614 0.428,-0.637 0.617,-1.672 0.598,-2.764 -0.557,-0.61 -1.174,-0.356 -1.652,0.308 -0.6,0.95 -0.3,1.84 -0.3,1.84 z m -56.97,-19.58 h -0.593 v 0.592 c 0.541,0.354 0.703,0.86 0.593,1.485 -0.644,0.021 -0.632,0.448 -0.593,0.888 0.315,0.352 0.667,0.64 1.187,0.596 -0.01,0.744 -0.874,1.246 -0.594,2.076 0.679,0.39 0.989,0.532 1.483,1.187 1.566,0.376 3.154,0.316 4.746,0.297 -0.082,0.285 0.089,0.446 0.299,0.593 h -0.595 c -0.118,0.528 -0.772,0.839 -0.593,1.483 0.285,-0.082 0.448,0.089 0.593,0.297 v 0.593 c 1.135,0.032 1.986,0.766 2.968,1.187 -1.557,1.443 -1.317,3.703 -0.298,5.342 -0.279,1.339 -0.047,2.487 0,3.854 -0.582,0.399 -0.193,0.991 -0.297,1.484 0.369,0.206 0.361,0.538 0.297,0.89 0.431,0.627 1.228,0.512 1.778,0.893 0.674,-1.209 1.636,-1.374 2.969,-1.188 0.135,-1.158 1.494,-0.73 2.075,-1.483 0.258,-1.487 -0.079,-3.235 -1.483,-4.155 -0.219,-1.275 0.427,-2.617 -0.295,-3.855 -0.69,0.152 -1.338,-0.123 -1.484,-0.893 0.383,-1.86 -0.79,-3.503 -2.076,-4.746 -1.035,-0.31 -1.829,-0.478 -2.67,-1.188 -0.709,-1.442 0.211,-3.177 -0.889,-4.448 -1.34,0.376 -2.128,-0.491 -1.782,-1.779 -0.858,-0.74 -1.945,-0.696 -2.966,-0.893 0.079,0.288 -0.088,0.449 -0.297,0.596 -0.53,-0.09 -0.94,0.45 -1.49,0.29 z m -127.87,199.66 -0.59,0.3 v 1.485 c 0.943,0.16 1.69,0.81 2.672,0.591 0.852,-0.613 1.225,-1.613 1.186,-2.668 -1.11,-0.58 -2.32,-0.34 -3.27,0.3 z m -300.82,-64.56 c 1.051,-1.823 -7.729,-1.443 -9.073,-0.19 0.302,1.031 0.6,2.061 1.159,2.994 0.938,0.325 2.076,0.051 2.832,0.931 0.509,-0.203 0.993,0.689 1.514,0.031 0.986,1.047 2.653,0.351 3.637,1.414 0.686,0.2 1.375,0.339 2.091,0.159 l 0.322,-1.446 c -0.86,-1.34 -2.27,-2.19 -2.48,-3.88 z m 45.7,21.37 2.896,0.642 c 0.674,-1.389 1.05,-2.812 0.966,-4.345 l -0.87,-0.192 c -0.871,-0.955 -2.27,-1.392 -3.475,-0.77 -1.273,-1.167 -3.023,0.079 -4.539,-0.096 -0.943,0.637 -0.943,2.564 0.836,2.713 1.781,0.146 2.818,0 2.671,0.74 -0.16,0.75 -0.24,2.33 1.5,1.32 z m -32.6,-13.31 c 0,0 -1.251,-0.759 -1.418,-1.832 -1.031,-0.965 -2.301,-1.247 -3.538,-0.484 -0.693,1.438 0.172,2.737 0.611,4.088 0.571,0.497 1.208,0.899 1.835,1.32 0.822,0.63 2.034,0.39 2.769,1.219 1.319,-0.219 2.64,-0.048 3.959,-0.032 0.269,0.77 0.826,1.311 1.415,1.833 0.639,0.082 1.263,0.022 1.87,-0.196 0.36,0.997 1.37,1.43 1.931,2.253 l 1.158,0.257 c 0.421,-0.27 0.993,-0.199 1.351,-0.611 1.669,-0.044 3.349,0.788 4.893,-0.133 1.852,0.329 3.637,1.081 5.567,0.929 0,0 0.381,-1.062 1.478,-1.188 0.189,-1.272 0.538,-3.11 2.221,-3.154 0.944,-0.017 -0.351,-2.061 -1.353,-2.124 -0.765,-1.209 -1.08,-2.589 -2.801,-2.443 -0.108,-0.616 0,-1.256 -0.194,-1.867 -2.3,-0.572 -4.554,-1.914 -5.794,-4.019 -0.801,-0.137 -1.398,-0.829 -2.257,-0.805 -0.294,-0.208 -0.585,-0.424 -0.74,-0.771 -1.581,0.854 -3.386,-0.402 -5.051,-0.513 0.038,1.582 -4.626,0.599 -3.674,1.434 1.187,1.038 2.206,2.754 1.781,3.263 -0.74,0.893 0.14,3.095 0.737,3.253 -1.639,0.905 -3.222,0.111 -4.826,-0.158 -0.43,0.81 -1.34,0.07 -1.94,0.48 z m 7.5,-50.75 c -0.23,0.03 -0.481,-0.445 -0.893,-0.297 -0.418,1.525 1.772,3.781 -0.592,4.452 v 0.592 l 0.592,0.595 h 0.596 c 0.629,-0.588 1.066,-1.195 0.89,-2.079 0.487,0.089 0.639,-0.328 0.888,-0.591 -0.863,-0.066 -0.521,-1.022 -0.591,-1.484 -0.43,0.367 -0.164,-0.661 -0.595,-0.298 -0.19,-0.239 0.321,-0.717 0,-0.89 h -0.31 z m -10.68,6.23 c 0.443,-1.48 -2.08,-2.373 -2.671,-0.89 -1.623,0.137 -1.994,1.532 -1.781,2.966 0.898,0.5 0.896,1.269 1.483,2.076 1.592,-0.124 3.261,0.36 4.746,-0.592 v -2.076 c -0.6,-0.49 -1.42,-0.71 -1.78,-1.49 z m -21.048,1.62 c 0,0 -3.724,3.134 -5.199,3.572 l -1.152,-0.294 -0.73,2.874 c 1.563,1.835 4.197,3.209 6.75,2.335 l 0.295,-1.148 5.749,1.465 c 0.166,-0.437 -0.318,-1.443 0.868,-1.003 1.278,1.281 1.349,4.263 3.867,4.051 l 0.858,1.442 c 1.072,0.545 2.609,0.038 3.3,1.453 l -0.292,1.152 1.148,0.291 c -0.697,1.307 0.533,2.472 0.271,3.744 -1.193,1.24 -2.107,2.199 -3.755,2.718 -0.518,1.161 -0.451,2.377 -0.306,3.596 2.285,1.274 4.554,2.592 7.181,3.057 0.614,-0.171 1.222,-0.421 1.873,-0.136 3.089,2.278 6.967,2.377 10.495,2.069 0.772,-1.301 2.206,-2.045 2.177,-3.731 -1.079,-0.091 -1.535,-1.471 -2.728,-1.31 -2.12,1.411 -4.419,-0.114 -6.617,-0.466 -1.874,-2.101 -1.529,-4.924 -2.412,-7.348 l -4.025,-1.028 c -0.924,-2.323 0.246,-5.178 -1.835,-7.206 -4.577,-1.975 -6.675,-6.219 -8.296,-10.69 -2.619,-1.09 -5.046,-0.94 -7.478,0.56 z m -50.305,111.57 c -2.075,-0.591 -3.559,1.188 -2.371,2.374 1.186,1.187 3.559,3.562 0.888,2.969 -2.668,-0.595 -4.188,2.76 -2.668,3.264 1.78,0.591 4.151,-0.891 6.229,-0.596 1.184,-1.18 -0.001,-6.22 -2.078,-8 z m 135.29,223.7 -0.529,0.684 C 71.668,608.701 0.708,493.041 0.708,360.711 c 0,-139.59 78.966,-260.63 194.4,-320.35 l 2.104,0.648 c 1.188,2.076 -0.298,3.561 -2.373,5.934 -2.077,2.374 -3.561,5.935 -2.671,8.01 0.889,2.079 -6.232,3.266 -8.605,3.858 -2.373,0.595 -6.229,1.78 -7.414,10.383 -1.188,8.604 -5.934,3.56 -7.121,3.56 -1.187,0 -5.044,6.528 -8.307,6.231 -3.266,-0.298 -6.826,1.782 -5.934,4.45 0.889,2.671 -3.858,5.044 -6.826,4.452 0.296,5.637 -3.561,5.042 -3.561,5.042 0,0 -0.592,3.856 -6.823,5.044 -6.231,1.187 -4.449,1.484 -5.339,5.343 -0.893,3.854 -8.604,2.373 -8.903,8.009 -0.296,5.636 -4.955,-0.893 -8.009,9.494 -1.484,5.044 -6.528,6.525 -8.307,6.23 -1.782,-0.297 -7.716,5.934 -7.418,9.789 -2.076,1.187 -6.824,-0.592 -5.339,4.155 l -4.155,0.889 c 0,0 2.077,8.308 -3.858,9.792 -5.934,1.484 -8.307,5.633 -8.307,13.646 0,3.561 -9.789,0.893 -9.196,1.781 0.595,0.891 0,4.152 0,4.152 0,0 -4.45,-4.747 -2.076,6.827 -1.484,5.041 -7.716,0.591 -5.343,8.307 2.375,7.712 -2.075,-3.858 -4.746,13.055 -2.965,2.965 1.188,7.414 -3.855,9.494 1.482,4.448 -0.893,8.307 -4.746,11.271 -1.484,3.561 2.966,1.782 -5.343,6.231 0,1.484 -1.483,5.339 -3.559,6.525 -1.963,1.124 -4.748,9.494 -4.153,12.463 0,0 -2.67,2.67 -1.78,3.56 0.888,0.89 0.594,2.076 -1.485,3.561 -2.075,1.483 0,4.449 0,4.449 l -1.777,2.076 c 0,0 1.186,2.969 0,4.155 -1.188,1.187 -0.596,5.637 0.888,6.525 1.485,0.893 2.077,-1.48 2.077,-1.48 0,0 -0.592,-3.858 0.594,-3.858 1.188,0 1.188,-2.373 1.188,-2.373 0,0 0.89,-5.934 2.373,-5.934 1.484,-2.672 1.352,-6.548 1.484,-9.197 0.295,-5.934 2.668,-7.12 2.668,-7.12 l 0.667,-3.637 c 0,0 2.599,-4.968 4.079,-4.968 1.485,0 2.375,0 1.783,1.187 -0.596,1.188 -2.969,-0.298 -3.858,4.748 0.298,2.67 -0.592,5.043 -0.592,5.043 0,0 -2.079,1.779 -2.079,3.561 0,1.778 1.188,6.229 0.298,7.121 -0.89,0.889 -2.671,0.889 -3.263,8.899 -1.188,2.373 -3.264,1.78 -1.782,8.604 -2.076,2.966 -0.889,7.121 2.079,9.494 2.966,2.373 0.593,5.637 -2.373,5.934 v 2.966 c -4.453,-1.778 -2.08,3.561 -1.782,4.747 -2.373,1.187 -4.151,4.747 -1.778,4.155 2.373,-0.595 0.593,2.965 0.593,2.965 0,0 -3.263,7.121 -2.375,8.902 0.89,1.778 0.596,7.12 0.596,7.12 h 2.667 c 0,0 1.485,3.263 0,5.339 -1.48,2.079 1.783,3.857 2.374,5.045 0.595,1.187 0.893,2.671 0,4.154 -0.889,1.481 2.672,4.152 1.484,6.525 -1.188,2.374 -0.298,7.121 2.075,7.716 2.375,0.593 2.969,2.966 6.231,2.076 3.262,-0.89 1.782,4.747 1.782,4.747 0,0 3.263,4.747 2.373,6.231 0.593,1.48 3.561,1.48 3.561,1.48 0,0 -2.671,3.858 -1.782,5.342 0.89,1.484 1.188,5.934 1.188,5.934 l 2.968,1.484 c 0,0 1.482,2.668 2.966,3.855 1.484,1.187 -0.89,5.639 2.373,4.746 2.375,3.267 1.188,8.308 -0.298,9.2 -1.48,0.889 2.969,2.474 2.969,4.151 0,3.561 3.561,4.746 3.561,4.746 -0.298,0.89 -3.856,2.375 -1.483,3.858 2.373,1.484 2.075,3.857 3.561,8.308 1.78,2.226 5.341,3.263 2.521,10.085 -2.818,6.826 1.779,3.266 1.928,3.415 0.149,0.146 -1.633,2.226 0.595,1.485 2.226,-0.745 5.786,-1.042 5.786,1.777 0,2.816 1.183,5.048 6.525,4.156 0.594,-1.931 4.095,-6.964 4.449,-0.298 0.152,2.815 1.338,1.186 1.338,1.186 0,0 -0.691,3.374 1.333,4.894 0.595,0.446 -0.298,2.67 -0.298,2.67 0,0 2.228,1.931 1.34,5.193 -0.893,3.264 2.964,0.89 2.221,4.896 -0.74,4.006 1.339,3.854 1.339,3.854 0,0 -1.757,1.513 -2.374,8.307 -0.445,4.898 -3.414,0.743 -8.307,4.747 1.035,2.526 -2.229,4.007 -3.561,4.747 -1.338,0.743 -2.525,1.931 -0.298,4.453 -1.04,2.224 -7.566,2.373 -3.117,8.01 -3.262,1.777 -0.541,4.623 -0.146,7.269 0.593,4.003 -6.379,3.115 -0.595,12.608 l 3.71,-0.592 c 0,0 -1.782,4.006 -2.82,4.449 -1.038,0.446 2.82,7.418 5.341,7.865 2.521,0.442 6.081,5.486 4.45,8.749 1.631,0.89 3.858,4.45 2.969,6.823 -0.893,2.373 1.63,6.231 1.63,6.231 0,0 4.746,5.636 6.677,6.525 -3.414,3.712 3.561,8.459 5.339,8.308 1.782,-0.146 -2.521,8.459 10.681,13.649 0.443,7.418 8.532,5.626 10.532,12.164 2.225,7.27 9.494,6.972 9.494,6.972 0,0 4.45,2.225 3.117,6.972 2.816,0 3.113,0.446 2.966,1.187 -0.149,0.743 -3.561,4.153 -3.561,4.153 0,0 4.896,1.633 3.113,7.271 -1.778,5.636 7.864,1.188 7.419,9.789 2.67,2.522 -1.336,9.199 6.676,11.127 -2.968,5.193 -1.04,12.312 2.668,12.904 3.71,0.596 -2.521,10.532 4.453,11.124 v 3.414 c 0,0 6.08,-1.04 6.526,4.005 0.442,5.044 6.528,6.528 4.448,8.604 -2.09,2.11 0.72,3.74 1.47,3.89 z"
       inkscape:connector-curvature="0" /></defs><clipPath
     id="SVGID_5_"><use
       overflow="visible"
       xlink:href="#SVGID_4_"
       id="use34"
       style="overflow:visible"
       x="0"
       y="0"
       width="716.98102"
       height="721.41699" /></clipPath><radialGradient
     id="SVGID_6_"
     gradientUnits="userSpaceOnUse"
     cy="363.64999"
     cx="358.48999"
     r="357.42001"><stop
       stop-color="#3898D4"
       offset="0"
       id="stop37" /><stop
       stop-color="#3898D4"
       offset=".3901"
       id="stop39" /><stop
       stop-color="#184797"
       offset=".989"
       id="stop41" /></radialGradient><g
     inkscape:groupmode="layer"
     id="layer2"
     inkscape:label="Globus"
     style="display:inline"><rect
       clip-path="url(#SVGID_2_)"
       height="720"
       width="715.56"
       y="0.708"
       x="0.70899999"
       id="rect28"
       style="fill:url(#radialGradient4036)"
       transform="matrix(1.3665274,0,0,1.3665274,7.9998468,8.1607346)" /><rect
       clip-path="url(#SVGID_5_)"
       height="714.12"
       width="715.56"
       y="6.585"
       x="0.70899999"
       id="rect43"
       style="fill:url(#radialGradient4038)"
       transform="matrix(1.3665274,0,0,1.3665274,7.9998468,8.1607346)" /><path
       d="m 839.01249,182.98058 c 1.56194,-0.42499 1.67399,2.04979 3.24277,1.62071 -0.59581,2.47478 0.52338,4.23896 2.43105,5.67518 -0.81718,3.73882 1.16701,6.37759 2.43515,9.72968 1.56468,-0.6368 2.29577,0.76115 3.24277,1.62207 2.55541,-1.6904 3.45458,-5.72165 3.24277,-8.91659 -1.17931,0.10248 -1.96233,-1.34877 -3.24277,-0.81309 -1.06316,-2.34496 -0.82948,-4.82657 -0.81308,-7.29725 -3.84404,-1.3884 -1.40069,-5.15045 -3.24277,-8.10898 -2.9763,0.38126 -5.9485,-1.18341 -8.91796,1.62344 -1.59884,2.02246 -0.38263,5.65742 1.63983,4.85117 z"
       id="path45"
       inkscape:connector-curvature="0"
       style="fill:#175dab" /><path
       d="m 841.44491,201.63368 c -0.80762,-5.67382 -10.53866,-8.91659 -5.67246,4.05586 -4.05722,3.24413 -4.8662,11.35447 8.10898,11.35447 -2.43516,5.67246 7.29452,9.32245 6.4869,13.78143 -0.81308,4.46308 2.02246,4.86484 4.86621,4.86484 2.83691,0 8.91522,0.81445 8.91522,6.4869 3.24277,-1.21484 8.51483,0.40723 6.8955,7.70722 -1.62344,7.29589 6.48554,6.88866 7.70175,6.88866 1.21484,0 9.25412,16.58691 13.78689,0.40723 2.83691,-10.1369 -5.67792,-6.89277 -5.67792,-6.89277 0,0 -1.21621,-8.51209 -4.05312,-8.11034 -2.84101,0.40723 -2.02793,-7.70174 -5.2707,-8.10897 -3.24277,-0.40176 -4.45898,-0.40176 -6.07968,-3.24277 -4.05858,1.22031 -6.08514,-13.78143 -11.35311,-12.56795 -5.27206,1.21621 -8.10897,-2.83555 -8.10897,-2.83555 0,0 -8.92206,-2.02792 -6.48691,-8.10897 2.43242,-6.10838 -4.05858,-5.69842 -4.05858,-5.69842 z"
       id="path47"
       inkscape:connector-curvature="0"
       style="fill:#175dab" /><path
       d="m 258.44332,127.84394 c -0.47828,3.16897 -2.9312,3.67186 -5.67655,3.24277 v 5.67382 c -0.87321,0.9593 -1.82978,1.75052 -3.24414,1.62207 1.20255,1.34876 2.79455,2.87927 4.86621,2.43378 2.5226,-2.10445 5.79544,-3.36849 8.92069,-3.24277 -0.18175,-1.63847 1.2285,-2.64286 1.62343,-4.05722 2.73852,-1.81065 6.66319,0.51928 8.10897,-3.24277 0.58898,-2.46931 -0.53157,-4.23487 -2.43378,-5.67382 -1.6658,0.0301 -3.13072,1.23671 -4.86621,0.80898 -0.0465,-2.68522 -2.16321,-4.68445 -2.43105,-7.29452 h -3.24277 v 5.67246 c -0.79258,-0.22001 -1.2326,0.24734 -1.62343,0.81308 v 3.24414 z"
       id="path49"
       inkscape:connector-curvature="0"
       style="fill:#175dab" /><path
       d="m 244.65506,148.92672 c -0.54661,0 0.53295,0 0,0 -0.43729,0.75706 -0.97707,1.47858 -0.80898,2.42969 2.89703,-0.0137 5.8173,-0.44959 8.10897,1.62206 -1.51275,1.10826 -0.53705,2.70573 -0.81308,4.05722 0.5671,0.39356 1.03446,0.83359 0.81308,1.62207 5.50027,1.47039 3.90827,-4.92496 4.05312,-8.11034 -1.25994,-2.07029 -3.55844,-1.62343 -5.67519,-1.6207 0.22138,-0.78712 -0.24597,-1.22851 -0.81308,-1.62343 -1.82842,0.31976 -4.86074,-2.49938 -5.67246,0.81035 l 0.80625,0.81991 z"
       id="path51"
       inkscape:connector-curvature="0"
       style="fill:#175dab" /><path
       d="m 194.35319,272.7341 c -5.64376,1.87625 -6.45685,9.98522 0.84314,8.36315 7.29453,-1.62207 12.59665,-3.33433 13.39334,-1.46628 0.79668,1.87351 -3.26054,5.5235 -0.82538,5.11764 2.43105,-0.40722 2.43105,2.43242 -1.62207,5.26933 -4.05585,2.83828 -6.65909,6.08105 -10.02485,10.60016 -6.60032,8.86056 -2.9476,24.67128 5.16001,6.02501 8.10897,-18.65173 10.13553,-14.59724 10.13553,-14.59724 0,0 7.70312,0.40312 0.80899,10.94588 2.02793,1.62207 2.83554,0 4.8662,-0.40586 -4.8662,4.05722 -3.6131,23.9361 3.65,5.26933 2.83554,-7.29862 2.12358,-6.8586 2.12358,-6.8586 5.98539,-2.06345 6.99252,-13.30997 -4.254,-12.55018 -1.92544,-7.35192 5.77905,-11.8109 -3.14164,-16.26851 -1.62071,-5.2707 -11.71798,-4.69676 -13.15966,-1.94184 -1.43486,2.71939 -7.17427,3.83994 -7.95319,2.47342 z"
       id="path53"
       inkscape:connector-curvature="0"
       style="fill:#175dab" /><path
       d="m 218.95068,318.14381 c -3.5721,1.91997 -5.69569,15.95284 0.97433,7.12234 6.66729,-8.8346 5.283,-7.8097 5.283,-7.8097 0,0 3.13071,-4.45078 5.41555,-3.2824 2.28756,1.16701 5.242,-2.07712 5.82004,-3.21681 0.58487,-1.14242 4.05722,-5.12994 -4.16381,-2.2698 -8.2265,2.85331 -6.58803,5.5604 -8.70888,6.05918 -2.13178,0.49195 -5.45245,0.80625 -4.61886,3.38899 z"
       id="path55"
       inkscape:connector-curvature="0"
       style="fill:#175dab" /><path
       d="m 214.24983,203.65614 c -2.02793,3.24277 4.46034,-9.32381 5.27206,-1.62343 0.80762,7.70311 0.80762,9.32382 2.02246,10.54412 1.22031,1.21621 2.02656,7.29589 0,10.1328 -2.02246,2.84102 -2.42969,2.43516 -3.24277,-2.02382 -0.80898,-4.46308 -1.21621,-8.51347 -2.02519,-10.1369 -0.81309,-1.62207 -2.02656,0 -2.43242,2.02792 -0.40723,2.02383 0,6.48691 -1.21621,7.70312 -1.21621,1.21484 -6.48691,-4.45898 -3.65,-7.70312 2.82871,-3.225 6.8873,-6.47734 5.26113,-8.90975 z"
       id="path57"
       inkscape:connector-curvature="0"
       style="fill:#175dab" /><path
       d="m 292.29221,98.652182 c -0.60401,-1.21621 -12.56659,0.80762 -1.41299,6.486898 -0.81445,2.6374 0.40039,9.12431 3.84677,1.41709 0.61084,-1.82431 4.26083,-2.23154 4.26083,-2.23154 0.60401,2.23154 3.84678,-2.22744 -0.20771,-4.657118 -4.05312,-2.43515 -3.03642,-5.07255 -3.03642,-5.07255 0,0 -3.45732,2.23154 -3.45732,4.05722 z"
       id="path59"
       inkscape:connector-curvature="0"
       style="fill:#175dab" /><path
       d="m 942.81391,593.28044 v 2.43241 c -1.45672,1.19298 -2.2411,2.94897 -2.43242,4.86484 0.53841,0.54525 1.07956,1.08366 1.6207,1.62207 -1.83524,1.674 -0.31567,3.81944 -0.81035,5.67792 -2.72349,-0.69693 -4.61749,1.80792 -5.67792,4.05312 -0.63543,2.48982 0.54115,4.22804 2.43515,5.67792 -0.6081,3.84678 0.91421,7.54187 0.81035,11.35175 0.93061,0.87731 2.07849,0.86091 3.24277,0.80898 -0.69283,-6.38032 2.43925,-12.25775 2.43379,-18.64763 0.9306,-1.72046 1.9678,-3.36986 3.24413,-4.86621 h 1.62344 c -0.30337,-3.48464 2.91753,-5.95806 1.6207,-9.7283 -2.12768,-0.74886 -3.2824,-2.65517 -4.8662,-4.05859 -1.3392,0.76252 -2.15638,-0.56574 -3.24277,-0.80762 v 1.62617 z"
       id="path61"
       inkscape:connector-curvature="0"
       style="fill:#175dab" /><path
       stroke-miterlimit="3.8636"
       d="m 497.88625,993.0307 c 270.02582,0 488.91618,-220.25689 488.91618,-491.94987 0,-131.46677 -51.25708,-250.89443 -134.75464,-339.14477 C 762.9912,67.800091 637.24335,9.1309696 497.88489,9.1309696 227.87274,9.1282366 8.9687148,229.38785 8.9687148,501.08083 8.9673478,772.77381 227.87274,993.0307 497.88489,993.0307 z"
       id="path123"
       inkscape:connector-curvature="0"
       style="fill:none;stroke:#000000;stroke-width:1.93650591;stroke-miterlimit:3.86360002" /><path
       stroke-miterlimit="5"
       d="M 185.23845,211.84164"
       id="path125"
       inkscape:connector-curvature="0"
       style="fill:none;stroke:#a3def9;stroke-width:5.69267988;stroke-miterlimit:5" /></g><g
     inkscape:groupmode="layer"
     id="layer3"
     inkscape:label="LatLon"
     style="display:none"><path
       stroke-miterlimit="10"
       d="M 9.9553478,534.7384 C 6.7112108,362.023 198.07151,78.20893 502.13752,69.299171"
       id="path97"
       inkscape:connector-curvature="0"
       style="fill:none;stroke:#c7eafb;stroke-width:0.97283083;stroke-miterlimit:10;display:inline" /><path
       stroke-miterlimit="10"
       d="M 62.658211,724.46707 C -1.7475937,456.10842 161.93096,160.07758 499.71467,70.105422"
       id="path99"
       inkscape:connector-curvature="0"
       style="fill:none;stroke:#c7eafb;stroke-width:0.97283083;stroke-miterlimit:10;display:inline" /><path
       stroke-miterlimit="10"
       d="M 206.18731,895.5563 C -28.964718,595.54887 253.20952,157.68616 499.70373,70.105422"
       id="path101"
       inkscape:connector-curvature="0"
       style="fill:none;stroke:#c7eafb;stroke-width:0.97283083;stroke-miterlimit:10;display:inline" /><path
       stroke-miterlimit="10"
       d="M 318.07858,958.81285 C 104.84565,805.14684 233.75017,253.35674 499.70373,70.105422"
       id="path103"
       inkscape:connector-curvature="0"
       style="fill:none;stroke:#c7eafb;stroke-width:0.97283083;stroke-miterlimit:10;display:inline" /><path
       stroke-miterlimit="10"
       d="M 499.70373,70.108155 C 347.11729,225.90594 243.47985,917.25949 413.75189,985.36721"
       id="path105"
       inkscape:connector-curvature="0"
       style="fill:none;stroke:#c7eafb;stroke-width:0.97283083;stroke-miterlimit:10;display:inline" /><path
       stroke-miterlimit="10"
       d="M 483.49672,992.47042 C 416.18431,988.14946 478.90929,90.917635 499.7133,70.119088"
       id="path107"
       inkscape:connector-curvature="0"
       style="fill:none;stroke:#c7eafb;stroke-width:0.97283083;stroke-miterlimit:10;display:inline" /><path
       stroke-miterlimit="10"
       d="M 496.46506,68.486087 C 678.43185,254.29282 840.76164,887.32297 581.60382,985.7676"
       id="path115"
       inkscape:connector-curvature="0"
       style="fill:none;stroke:#c7eafb;stroke-width:0.97283083;stroke-miterlimit:10;display:inline" /><path
       stroke-miterlimit="10"
       d="M 512.07081,992.66173 C 685.04585,981.56963 524.03749,96.069442 496.4637,68.479255"
       id="path117"
       inkscape:connector-curvature="0"
       style="fill:none;stroke:#c7eafb;stroke-width:0.97283083;stroke-miterlimit:10;display:inline" /><path
       stroke-miterlimit="10"
       d="m 307.32401,47.809161 c -116.7602,64.869059 -57.36546,202.314379 202.1094,202.314379 197.84584,0 318.05925,-140.08272 201.28949,-191.969766"
       id="path85"
       inkscape:connector-curvature="0"
       style="fill:none;stroke:#c7eafb;stroke-width:0.97283083;stroke-miterlimit:10;display:inline" /><path
       stroke-miterlimit="10"
       d="m 165.23249,140.65513 c -60.90749,97.73404 49.21685,202.27339 250.96276,227.17152 29.23958,3.60899 60.40324,5.54536 93.24773,5.54536 197.84583,0 387.79314,-103.58687 335.89243,-218.72637"
       id="path87"
       inkscape:connector-curvature="0"
       style="fill:none;stroke:#c7eafb;stroke-width:0.97283083;stroke-miterlimit:10;display:inline" /><path
       stroke-miterlimit="10"
       d="M 70.970797,261.26894 C 45.023175,402.36289 249.95855,504.72946 509.43478,504.72946 c 197.84583,0 450.22978,-92.23513 414.54975,-244.67673"
       id="path89"
       inkscape:connector-curvature="0"
       style="fill:none;stroke:#c7eafb;stroke-width:0.97283083;stroke-miterlimit:10;display:inline" /><path
       stroke-miterlimit="10"
       d="M 17.046259,411.68261 C 51.102855,544.66212 249.76587,637.51493 509.2421,637.51493 c 197.84583,0 467.05173,-90.81668 465.43923,-246.50788"
       id="path91"
       inkscape:connector-curvature="0"
       style="fill:none;stroke:#c7eafb;stroke-width:0.97283083;stroke-miterlimit:10;display:inline" /><path
       stroke-miterlimit="10"
       d="M 986.22849,520.95014 C 960.27813,679.87728 700.80191,760.95335 501.3299,756.08851 230.5115,749.60161 66.309572,682.50101 9.5440228,523.57387"
       id="path93"
       inkscape:connector-curvature="0"
       style="fill:none;stroke:#c7eafb;stroke-width:0.97283083;stroke-miterlimit:10;display:inline" /><path
       stroke-miterlimit="10"
       d="M 108.27016,799.47576 C 245.10055,960.42535 726.7468,979.8847 876.14924,812.44957"
       id="path119"
       inkscape:connector-curvature="0"
       style="fill:none;stroke:#c7eafb;stroke-width:0.97283083;stroke-miterlimit:10;display:inline" /><path
       stroke-miterlimit="10"
       d="M 41.779039,679.6723 C 142.12998,866.94121 744.29711,965.08521 956.21818,673.39037"
       id="path127"
       inkscape:connector-curvature="0"
       style="fill:none;stroke:#c7eafb;stroke-width:0.97283083;stroke-miterlimit:10;display:inline" /><path
       stroke-miterlimit="10"
       d="m 317.66862,958.19791 c 79.78334,35.44089 275.3826,37.13538 360.43527,0.20772"
       id="path121"
       inkscape:connector-curvature="0"
       style="fill:none;stroke:#c7eafb;stroke-width:0.97283083;stroke-miterlimit:10;display:inline" /><path
       stroke-miterlimit="10"
       d="M 933.7265,723.66082 C 1017.1708,441.29526 883.85509,171.66574 496.46506,68.49292"
       id="path109"
       inkscape:connector-curvature="0"
       style="fill:none;stroke:#c7eafb;stroke-width:0.97283083;stroke-miterlimit:10;display:inline" /><path
       stroke-miterlimit="10"
       d="M 789.99515,895.36498 C 1083.5252,610.14338 787.94263,172.04836 496.46506,68.49292"
       id="path111"
       inkscape:connector-curvature="0"
       style="fill:none;stroke:#c7eafb;stroke-width:0.97283083;stroke-miterlimit:10;display:inline" /><path
       stroke-miterlimit="10"
       d="M 678.10389,958.40289 C 921.74206,794.84323 846.82903,309.88998 496.46506,68.49292"
       id="path113"
       inkscape:connector-curvature="0"
       style="fill:none;stroke:#c7eafb;stroke-width:0.97283083;stroke-miterlimit:10;display:inline" /><path
       stroke-miterlimit="10"
       d="m 499.70373,70.108155 c 71.35733,-16.21658 305.89716,19.66433 383.73456,128.318285"
       id="path65"
       inkscape:connector-curvature="0"
       style="fill:none;stroke:#c7eafb;stroke-width:0.97283083;stroke-miterlimit:10;display:inline" /><path
       stroke-miterlimit="10"
       d="M 985.61355,533.11223 C 989.19795,342.34501 823.70738,77.348018 494.03265,67.673004"
       id="path67"
       inkscape:connector-curvature="0"
       style="fill:none;stroke:#c7eafb;stroke-width:0.97283083;stroke-miterlimit:10;display:inline" /><path
       stroke-miterlimit="10"
       d="M 499.70373,70.108155 C 559.70659,44.160533 714.37152,48.01414 793.83509,109.63906"
       id="path73"
       inkscape:connector-curvature="0"
       style="fill:none;stroke:#c7eafb;stroke-width:0.97283083;stroke-miterlimit:10;display:inline" /><path
       stroke-miterlimit="10"
       d="M 685.40114,46.594318 C 647.29143,34.429492 550.79683,31.997073 499.7174,70.106789"
       id="path75"
       inkscape:connector-curvature="0"
       style="fill:none;stroke:#c7eafb;stroke-width:0.97283083;stroke-miterlimit:10;display:inline" /><path
       stroke-miterlimit="10"
       d="M 243.67116,81.056773 C 279.34709,52.673999 412.94291,34.429492 502.13615,69.299171"
       id="path69"
       inkscape:connector-curvature="0"
       style="fill:none;stroke:#c7eafb;stroke-width:0.97283083;stroke-miterlimit:10;display:inline" /><path
       stroke-miterlimit="10"
       d="M 500.91994,68.084328 C 522.00546,40.916397 573.49621,16.590843 605.11766,21.053921"
       id="path77"
       inkscape:connector-curvature="0"
       style="fill:none;stroke:#c7eafb;stroke-width:0.97283083;stroke-miterlimit:10;display:inline" /><path
       stroke-miterlimit="10"
       d="M 500.52365,70.108155 C 494.03811,51.460523 482.07553,22.469644 461.8072,10.30755"
       id="path79"
       inkscape:connector-curvature="0"
       style="fill:none;stroke:#c7eafb;stroke-width:0.97283083;stroke-miterlimit:10;display:inline" /><path
       stroke-miterlimit="10"
       d="m 402.40698,18.212911 c 35.67867,-0.808984 90.81668,36.490381 99.73464,51.08626"
       id="path81"
       inkscape:connector-curvature="0"
       style="fill:none;stroke:#c7eafb;stroke-width:0.97283083;stroke-miterlimit:10;display:inline" /><path
       stroke-miterlimit="10"
       d="m 345.64144,33.620507 c 42.97182,-7.299989 123.24847,10.53866 156.49471,35.677298"
       id="path83"
       inkscape:connector-curvature="0"
       style="fill:none;stroke:#c7eafb;stroke-width:0.97283083;stroke-miterlimit:10;display:inline" /><path
       stroke-miterlimit="10"
       d="M 502.13615,69.299171 C 322.83409,39.823175 203.94621,102.33907 127.72131,180.18194"
       id="path63"
       inkscape:connector-curvature="0"
       style="fill:none;stroke:#c7eafb;stroke-width:0.97283083;stroke-miterlimit:10;display:inline" /><path
       stroke-miterlimit="10"
       d="M 515.30948,9.4944656 C 505.5798,12.737236 496.4596,47.403303 499.70237,70.106789 c 0,0 24.93229,-49.663705 60.61095,-56.963695"
       id="path71"
       inkscape:connector-curvature="0"
       style="fill:none;stroke:#c7eafb;stroke-width:0.97283083;stroke-miterlimit:10;display:inline" /><path
       stroke-miterlimit="10"
       d="M 41.575426,324.71681 C 107.25893,169.02834 304.18099,52.859847 502.13615,69.299171"
       id="path95"
       inkscape:connector-curvature="0"
       style="fill:none;stroke:#c7eafb;stroke-width:0.97283083;stroke-miterlimit:10;display:inline" /></g><g
     inkscape:groupmode="layer"
     id="layer1"
     inkscape:label="Linien"
     style="display:inline"><path
       sodipodi:type="arc"
       style="fill:#ffffff;fill-opacity:0.50196078;stroke:#000000;stroke-width:3.59262013;stroke-linecap:butt;stroke-linejoin:miter;stroke-miterlimit:4;stroke-opacity:1;stroke-dasharray:none;display:inline"
       id="path3154"
       sodipodi:cx="-43.560318"
       sodipodi:cy="196.8089"
       sodipodi:rx="66.486801"
       sodipodi:ry="72.600525"
       d="m 22.926483,196.8089 a 66.486801,72.600525 0 1 1 -132.973603,0 66.486801,72.600525 0 1 1 132.973603,0 z"
       transform="matrix(7.24694,0,0,6.6819613,814.35498,-813.13319)" /><g
       id="g4120"
       style="fill:#3d7109;fill-opacity:0.71060175;stroke:#5b3111;stroke-opacity:1"><path
         style="fill:#3d7109;fill-opacity:0.71060175;stroke:#5b3111;stroke-width:25;stroke-linejoin:bevel;stroke-miterlimit:4;stroke-opacity:1;display:inline"
         d="m 830.78125,848.125 -166.0625,-418.65625 -54.875,-138.375 0,-192.875 -50.4375,0 0,65.6875 L 498.6875,10.8125 332.625,429.46875 166.59375,848.125 m 189.125,0 0,-150.75 86,0 0,150.75 m 0,2.09375 0,-2.09375 m -86,0 0,2.09375 m 142.96875,-571.625 c 24.90183,0 45.0625,20.16067 45.0625,45.0625 0,24.90183 -20.16067,45.09375 -45.0625,45.09375 -24.90183,0 -45.09375,-20.19192 -45.09375,-45.09375 0,-24.90183 20.19192,-45.0625 45.09375,-45.0625 z m 109.625,389.75 c 27.85628,0 50.4375,22.58122 50.4375,50.4375 0,27.85628 -22.58122,50.4375 -50.4375,50.4375 -27.85628,0 -50.4375,-22.58122 -50.4375,-50.4375 0,-27.85628 22.58122,-50.4375 50.4375,-50.4375 z"
         transform="matrix(1.0000014,0,0,1.0000014,0,-0.002765)"
         id="path3930"
         inkscape:connector-curvature="0"
         sodipodi:nodetypes="cccccccccccccccccssssssssss" /><path
         inkscape:connector-curvature="0"
         id="path3932"
         d="m 310.89485,495.93626 375.69932,0"
         style="fill:#3d7109;fill-opacity:0.71060175;stroke:#5b3111;stroke-width:25.00003433;stroke-linecap:butt;stroke-linejoin:miter;stroke-miterlimit:4;stroke-opacity:1;stroke-dasharray:none;display:inline" /></g></g><g
     style="display:inline"
     inkscape:label="Linien Kopie"
     id="g4159"
     inkscape:groupmode="layer"><g
       style="fill:none;stroke:#5b3111;stroke-width:40.00005722;stroke-miterlimit:4;stroke-opacity:1;stroke-dasharray:none"
       id="g4163"
       transform="translate(0,6.0000084)"><path
         sodipodi:nodetypes="ccccccccc"
         inkscape:connector-curvature="0"
         id="path4165"
         transform="matrix(1.0000014,0,0,1.0000014,0,-0.002765)"
         d="m 830.78125,848.125 -166.0625,-418.65625 -54.875,-138.375 0,-192.875 -50.4375,0 0,65.6875 L 498.6875,10.8125 332.625,429.46875 166.59375,848.125"
         style="fill:none;stroke:#5b3111;stroke-width:40;stroke-linejoin:bevel;stroke-miterlimit:4;stroke-opacity:1;stroke-dasharray:none;display:inline" /><path
         style="fill:none;stroke:#5b3111;stroke-width:40.00005722;stroke-linecap:butt;stroke-linejoin:miter;stroke-miterlimit:4;stroke-opacity:1;stroke-dasharray:none;display:inline"
         d="m 310.89485,495.93626 375.69932,0"
         id="path4167"
         inkscape:connector-curvature="0" /></g></g></svg>